<svg xmlns="http://www.w3.org/2000/svg" width="553" height="537" viewBox="0 0 553 537" fill="none"><g clip-path="url(#clip0_47_2414)"><path d="M499.757 119.411C499.757 119.411 500.505 119.463 501.725 120.027C502.92 120.579 504.599 121.786 505.649 123.991C506.161 125.08 506.502 126.392 506.45 127.823C506.384 129.24 506.017 130.762 505.137 132.114C504.717 132.797 504.179 133.426 503.536 133.978C502.906 134.529 502.172 135.001 501.371 135.356C499.783 136.077 497.893 136.274 496.082 135.881C494.271 135.461 492.644 134.476 491.515 133.151C490.938 132.495 490.478 131.76 490.15 130.985C489.809 130.224 489.586 129.411 489.494 128.623C489.271 127.022 489.586 125.487 490.137 124.174C490.702 122.862 491.568 121.825 492.499 121.051C494.376 119.502 496.423 119.135 497.736 119.135C499.074 119.135 499.77 119.424 499.77 119.424C499.77 119.476 499.048 119.279 497.736 119.332C496.45 119.384 494.494 119.804 492.709 121.313C491.843 122.062 491.017 123.072 490.492 124.332C489.98 125.579 489.704 127.062 489.927 128.571C490.019 129.332 490.229 130.08 490.557 130.802C490.872 131.537 491.305 132.232 491.856 132.849C492.933 134.109 494.468 135.028 496.174 135.421C497.893 135.789 499.665 135.618 501.174 134.936C501.935 134.608 502.631 134.175 503.221 133.65C503.825 133.138 504.35 132.547 504.744 131.891C505.584 130.618 505.964 129.161 506.043 127.823C506.109 126.471 505.794 125.198 505.334 124.148C504.376 122.022 502.775 120.802 501.633 120.211C500.465 119.607 499.731 119.489 499.757 119.424V119.411Z" fill="#E0E0E0"></path><path d="M506.424 110.513C506.424 110.513 506.423 110.421 506.41 110.224C506.41 110.001 506.41 109.712 506.384 109.332C506.384 108.518 506.358 107.35 506.332 105.828L506.397 105.907C504.455 105.487 501.909 104.922 498.825 104.253L498.956 104.187C498.353 105.473 497.683 106.904 496.961 108.426L496.922 108.505H496.843C495.269 108.571 493.602 108.846 491.909 109.384L491.817 109.41L491.751 109.345C490.715 108.321 489.586 107.206 488.418 106.051L488.628 106.077C486.568 107.389 484.389 108.781 482.093 110.237L482.171 110.014C482.657 111.379 483.195 112.888 483.746 114.424L483.785 114.542L483.707 114.634C482.657 115.775 481.633 117.166 480.833 118.728L480.78 118.833H480.649C479.192 118.833 477.591 118.833 475.964 118.846L476.174 118.676C475.649 121.051 475.072 123.61 474.481 126.248L474.363 125.999C475.675 126.629 477.132 127.311 478.589 128.006L478.707 128.059V128.19C478.772 129.752 479.048 131.458 479.573 133.112L479.612 133.243L479.507 133.348C478.47 134.384 477.342 135.526 476.2 136.668L476.226 136.379C477.539 138.453 478.943 140.671 480.373 142.928L480.098 142.836C481.489 142.337 482.998 141.799 484.507 141.261L484.639 141.209L484.743 141.301C485.911 142.377 487.303 143.387 488.825 144.175C488.877 144.266 488.694 143.965 488.956 144.385V144.529V144.673V144.962V145.553V146.721C488.956 147.508 488.956 148.282 488.956 149.057L488.772 148.82C491.331 149.398 493.851 149.962 496.332 150.513L496.069 150.644C496.751 149.214 497.421 147.81 498.077 146.419L498.143 146.287H498.287C499.98 146.222 501.633 145.92 503.208 145.434L503.339 145.395L503.444 145.5C504.56 146.616 505.675 147.718 506.765 148.807L506.489 148.781C508.72 147.364 510.912 145.986 513.038 144.634L512.946 144.896C512.421 143.4 511.896 141.93 511.384 140.487L511.345 140.369L511.437 140.277C512.605 139.03 513.563 137.639 514.324 136.196L514.376 136.091H514.494C516.096 136.091 517.657 136.091 519.18 136.091L518.983 136.248C519.586 133.584 520.151 131.077 520.702 128.689L520.807 128.899C519.324 128.19 517.92 127.521 516.581 126.878L516.489 126.838V126.733C516.424 124.949 516.109 123.308 515.636 121.799L515.61 121.707L515.676 121.642C516.883 120.434 517.972 119.358 518.996 118.334V118.505C517.382 115.959 516.017 113.794 514.862 111.943L514.993 111.983C513.221 112.599 511.778 113.098 510.571 113.531H510.531L510.492 113.518C509.245 112.35 508.195 111.655 507.487 111.195C507.145 110.985 506.87 110.828 506.686 110.71C506.502 110.605 506.41 110.552 506.424 110.552C506.424 110.552 506.528 110.592 506.712 110.683C506.896 110.775 507.172 110.92 507.539 111.143C508.261 111.576 509.337 112.258 510.61 113.413H510.531C511.739 112.967 513.182 112.442 514.941 111.799L515.019 111.773L515.072 111.851C516.253 113.702 517.631 115.854 519.245 118.387L519.311 118.479L519.232 118.558C518.208 119.581 517.132 120.684 515.938 121.891L515.977 121.733C516.463 123.269 516.791 124.936 516.87 126.747L516.778 126.602C518.13 127.232 519.521 127.901 521.017 128.597L521.148 128.663L521.122 128.807C520.584 131.195 520.033 133.715 519.442 136.379L519.403 136.537H519.245C517.723 136.537 516.174 136.537 514.56 136.55L514.744 136.445C513.97 137.928 512.985 139.345 511.804 140.631L511.844 140.408C512.355 141.852 512.88 143.322 513.418 144.818L513.471 144.988L513.326 145.08C511.2 146.432 509.022 147.823 506.778 149.24L506.62 149.332L506.489 149.201C505.4 148.112 504.284 147.009 503.169 145.894L503.405 145.946C501.791 146.458 500.098 146.76 498.366 146.826L498.563 146.694C497.906 148.085 497.237 149.503 496.555 150.92L496.476 151.091L496.292 151.051C493.812 150.5 491.279 149.936 488.733 149.358L488.549 149.319V149.122C488.549 148.348 488.549 147.574 488.549 146.786V145.618V145.028V144.739V144.595V144.516V144.476V144.45C488.812 144.87 488.615 144.568 488.681 144.66C487.119 143.847 485.688 142.823 484.507 141.721L484.743 141.773C483.234 142.311 481.725 142.849 480.334 143.348L480.15 143.413L480.045 143.256C478.615 140.999 477.211 138.781 475.898 136.707L475.793 136.55L475.925 136.419C477.066 135.277 478.195 134.135 479.232 133.098L479.179 133.335C478.641 131.642 478.365 129.896 478.3 128.295L478.431 128.492C476.961 127.796 475.518 127.101 474.205 126.484L474.048 126.405L474.087 126.235C474.678 123.61 475.255 121.051 475.793 118.676L475.833 118.505H476.003C477.631 118.505 479.232 118.505 480.688 118.505L480.505 118.61C481.331 117.022 482.368 115.605 483.457 114.437L483.418 114.634C482.867 113.085 482.342 111.589 481.856 110.211L481.804 110.067L481.935 109.988C484.232 108.531 486.423 107.153 488.497 105.854L488.615 105.775L488.707 105.867C489.875 107.035 490.99 108.151 492.014 109.187L491.856 109.148C493.576 108.61 495.282 108.347 496.883 108.295L496.765 108.374C497.5 106.851 498.182 105.434 498.786 104.148L498.825 104.056L498.917 104.082C501.988 104.791 504.534 105.382 506.476 105.828H506.542V105.907C506.528 107.416 506.515 108.571 506.515 109.384C506.515 109.765 506.515 110.067 506.502 110.277C506.502 110.473 506.502 110.578 506.489 110.592L506.424 110.513Z" fill="#E0E0E0"></path><path d="M197.268 96.9669C219.45 74.7858 219.45 38.823 197.268 16.6418C175.087 -5.53936 139.124 -5.53936 116.943 16.6418C94.7622 38.823 94.7622 74.7858 116.943 96.9669C139.124 119.148 175.087 119.148 197.268 96.9669Z" fill="#F5F5F5"></path><path d="M182.89 58.5439C182.89 58.5439 182.181 58.6357 180.882 58.6751C179.465 58.7013 177.614 58.7407 175.357 58.7801C170.672 58.8457 164.15 58.8851 156.774 58.8982H156.407V58.5307C156.407 57.3496 156.407 56.1029 156.407 54.843C156.407 46.6146 156.446 39.1736 156.512 33.7799C156.564 31.1814 156.604 29.0291 156.63 27.4018C156.669 25.8926 156.722 25.0659 156.774 25.0659C156.827 25.0659 156.879 25.9058 156.919 27.4018C156.945 29.0291 156.984 31.1814 157.037 33.7799C157.102 39.1736 157.142 46.6146 157.142 54.843C157.142 56.1029 157.142 57.3496 157.142 58.5307L156.774 58.1633C164.136 58.1633 170.672 58.2158 175.357 58.2814C177.601 58.3208 179.452 58.3601 180.882 58.3864C182.181 58.4258 182.89 58.4782 182.89 58.5176V58.5439Z" fill="#808080"></path><path d="M156.958 9.33078C157.155 9.33078 157.326 11.4699 157.326 14.1077C157.326 16.7455 157.155 18.8847 156.958 18.8847C156.761 18.8847 156.591 16.7455 156.591 14.1077C156.591 11.4699 156.761 9.33078 156.958 9.33078Z" fill="#808080"></path><path d="M182.837 16.9949C182.982 17.1393 181.604 18.7403 179.766 20.5776C177.929 22.4149 176.328 23.7929 176.184 23.6485C176.039 23.5042 177.417 21.9031 179.255 20.0658C181.092 18.2285 182.693 16.8506 182.837 16.9949Z" fill="#808080"></path><path d="M197.969 33.5174C198.061 33.7011 196.263 34.7903 194.058 36.1289C191.853 37.4675 190.055 38.5699 189.937 38.3993C189.819 38.2418 191.433 36.8507 193.677 35.499C195.908 34.1342 197.89 33.3336 197.969 33.5174Z" fill="#808080"></path><path d="M206.84 58.0583C206.84 58.2551 203.927 58.4257 200.331 58.4257C196.735 58.4257 193.822 58.2551 193.822 58.0583C193.822 57.8614 196.735 57.6908 200.331 57.6908C203.927 57.6908 206.84 57.8614 206.84 58.0583Z" fill="#808080"></path><path d="M116.63 57.179C116.63 57.3759 113.874 57.5465 110.488 57.5465C107.102 57.5465 104.346 57.3759 104.346 57.179C104.346 56.9822 107.102 56.8116 110.488 56.8116C113.874 56.8116 116.63 56.9822 116.63 57.179Z" fill="#808080"></path><path d="M123.008 75.4469C123.139 75.6044 121.065 77.481 118.362 79.6595C115.658 81.838 113.375 83.4654 113.257 83.2947C113.139 83.1373 115.212 81.2475 117.902 79.0821C120.593 76.9167 122.876 75.2894 123.008 75.4469Z" fill="#808080"></path><path d="M138.743 89.5678C138.913 89.6859 137.365 92.0612 135.58 95.0403C133.782 98.0193 132.417 100.5 132.22 100.408C132.037 100.329 133.126 97.6781 134.95 94.6728C136.761 91.6544 138.585 89.4628 138.743 89.5678Z" fill="#808080"></path><path d="M156.958 107.783C156.761 107.783 156.591 104.87 156.591 101.274C156.591 97.6781 156.761 94.7647 156.958 94.7647C157.155 94.7647 157.326 97.6781 157.326 101.274C157.326 104.87 157.155 107.783 156.958 107.783Z" fill="#808080"></path><path d="M185.003 99.1217C184.898 99.2791 182.352 97.8224 179.636 95.4471C176.906 93.0849 175.121 90.762 175.265 90.6308C175.423 90.4864 177.444 92.5599 180.121 94.8828C182.798 97.2188 185.121 98.9379 185.003 99.1085V99.1217Z" fill="#808080"></path><path d="M198.166 84.9483C198.021 85.0927 196.092 83.3997 193.861 81.1556C191.63 78.9246 189.924 76.9955 190.069 76.8511C190.213 76.7068 192.142 78.3997 194.373 80.6438C196.604 82.8748 198.31 84.8039 198.166 84.9483Z" fill="#808080"></path><path d="M122.417 39.6854C122.273 39.8298 120.567 38.3599 118.611 36.4045C116.656 34.4491 115.186 32.7431 115.331 32.5987C115.475 32.4544 117.181 33.9242 119.136 35.8796C121.092 37.835 122.562 39.541 122.417 39.6854Z" fill="#808080"></path><path d="M138.651 22.5855C138.507 22.7299 136.84 21.2994 134.911 19.3834C132.995 17.4673 131.551 15.8007 131.695 15.6563C131.84 15.5119 133.507 16.9424 135.436 18.8584C137.352 20.7745 138.795 22.4411 138.651 22.5855Z" fill="#808080"></path><g opacity="0.8"><path fill-rule="evenodd" clip-rule="evenodd" d="M466.03 27.7037C469.035 29.2654 471.778 31.2076 474.205 33.4649L482.933 30.3546L491.135 43.3075L484.599 49.8692C485.597 53.0189 486.187 56.3391 486.318 59.7119L494.691 63.6883L491.332 78.649L482.066 78.6753C480.505 81.6806 478.562 84.4234 476.305 86.8512L479.416 95.5783L466.463 103.781L459.901 97.245C456.751 98.2424 453.444 98.833 450.058 98.9642L446.082 107.337L431.121 103.977V94.7122C428.103 93.1505 425.36 91.2082 422.932 88.951L414.205 92.0612L406.003 79.1084L412.538 72.5466C411.541 69.397 410.95 66.0899 410.819 62.704L402.446 58.7276L405.806 43.7668H415.071C416.633 40.7484 418.575 38.0056 420.832 35.5778L417.722 26.8507L430.675 18.6485L437.237 25.184C440.386 24.1866 443.693 23.596 447.079 23.4648L451.056 15.092L466.016 18.4516L466.043 27.7168L466.03 27.7037ZM452.84 45.3023C443.982 43.3206 435.176 48.885 433.195 57.7565C431.213 66.6148 436.777 75.4207 445.649 77.4023C454.507 79.384 463.313 73.8196 465.295 64.9481C467.276 56.0898 461.712 47.2839 452.84 45.3023Z" fill="#DCDADA"></path></g><path d="M26.353 159.319H123.427C123.427 159.319 114.845 143.702 89.8576 145.973C65.9991 148.138 64.7786 138.282 52.6394 137.075C40.5001 135.867 30.3951 145.159 26.353 159.319Z" fill="#F5F5F5"></path><path d="M236.447 335.817H315.031C315.031 335.817 308.088 323.166 287.852 325.016C268.534 326.775 267.55 318.796 257.734 317.811C247.917 316.827 239.728 324.36 236.447 335.817Z" fill="#F5F5F5"></path><path d="M540.112 136.406H349.454V264.071H540.112V136.406Z" fill="white"></path><path d="M540.125 264.071C540.125 264.071 540.111 263.27 540.098 261.748C540.098 260.212 540.085 257.955 540.072 255.016C540.059 249.11 540.033 240.435 540.006 229.346C539.967 207.167 539.928 175.29 539.862 136.419L540.138 136.694C487.604 136.707 421.318 136.734 349.493 136.76H349.48L349.821 136.419C349.821 181.891 349.795 225.146 349.795 264.084L349.48 263.769C405.609 263.835 453.234 263.887 486.843 263.926C503.654 263.966 516.962 263.992 526.082 264.005C530.636 264.018 534.14 264.031 536.516 264.044C537.697 264.044 538.589 264.058 539.206 264.058C539.81 264.058 540.125 264.071 540.125 264.071C540.125 264.071 539.836 264.071 539.232 264.084C538.629 264.084 537.736 264.084 536.568 264.097C534.206 264.097 530.715 264.123 526.187 264.136C517.08 264.149 503.799 264.189 487.014 264.215C453.352 264.254 405.661 264.307 349.453 264.373H349.139V264.058C349.139 225.12 349.125 181.878 349.112 136.392V136.051H349.453H349.467C421.305 136.077 487.578 136.104 540.111 136.117H540.387V136.392C540.321 175.33 540.282 207.272 540.243 229.49C540.216 240.567 540.19 249.215 540.177 255.107C540.164 258.034 540.151 260.265 540.151 261.787C540.151 263.296 540.125 264.058 540.125 264.058V264.071Z" fill="#2197D4"></path><path d="M349.454 147.797C349.454 147.613 392.105 147.455 444.704 147.455C497.303 147.455 539.954 147.613 539.954 147.797C539.954 147.98 497.316 148.138 444.704 148.138C392.092 148.138 349.454 147.98 349.454 147.797Z" fill="#2197D4"></path><g opacity="0.3"><path d="M356.987 142.049C356.987 142.888 356.304 143.571 355.464 143.571C354.624 143.571 353.942 142.888 353.942 142.049C353.942 141.209 354.624 140.526 355.464 140.526C356.304 140.526 356.987 141.209 356.987 142.049Z" fill="#2197D4"></path></g><g opacity="0.3"><path d="M362.223 142.049C362.223 142.888 361.54 143.571 360.701 143.571C359.861 143.571 359.178 142.888 359.178 142.049C359.178 141.209 359.861 140.526 360.701 140.526C361.54 140.526 362.223 141.209 362.223 142.049Z" fill="#2197D4"></path></g><g opacity="0.3"><path d="M367.38 142.049C367.38 142.888 366.698 143.571 365.858 143.571C365.018 143.571 364.335 142.888 364.335 142.049C364.335 141.209 365.018 140.526 365.858 140.526C366.698 140.526 367.38 141.209 367.38 142.049Z" fill="#2197D4"></path></g><g opacity="0.3"><path d="M416.698 161.104H365.845V211.957H416.698V161.104Z" fill="#2197D4"></path></g><path d="M513.97 175.487C513.97 175.671 494.14 175.828 469.665 175.828C445.189 175.828 425.36 175.671 425.36 175.487C425.36 175.304 445.189 175.146 469.665 175.146C494.14 175.146 513.97 175.304 513.97 175.487Z" fill="#2197D4"></path><path d="M513.97 184.936C513.97 185.12 494.14 185.277 469.665 185.277C445.189 185.277 425.36 185.12 425.36 184.936C425.36 184.752 445.189 184.595 469.665 184.595C494.14 184.595 513.97 184.752 513.97 184.936Z" fill="#2197D4"></path><path d="M513.97 194.385C513.97 194.569 494.14 194.726 469.665 194.726C445.189 194.726 425.36 194.569 425.36 194.385C425.36 194.201 445.189 194.044 469.665 194.044C494.14 194.044 513.97 194.201 513.97 194.385Z" fill="#2197D4"></path><path d="M477.736 203.834C477.736 203.834 477.001 203.926 475.675 203.965C474.232 203.991 472.342 204.031 470.058 204.07C465.321 204.136 458.772 204.175 451.541 204.175C444.31 204.175 437.761 204.136 433.024 204.07C430.754 204.031 428.864 203.991 427.407 203.965C426.082 203.926 425.347 203.873 425.347 203.834C425.347 203.795 426.082 203.742 427.407 203.703C428.851 203.676 430.74 203.637 433.024 203.598C437.761 203.532 444.31 203.493 451.541 203.493C458.772 203.493 465.321 203.532 470.058 203.598C472.329 203.637 474.219 203.676 475.675 203.703C477.001 203.742 477.736 203.795 477.736 203.834Z" fill="#2197D4"></path><g opacity="0.3"><path d="M392.932 229.11H369.034V253.008H392.932V229.11Z" fill="#2197D4"></path></g><g opacity="0.3"><path d="M436.278 229.11H412.38V253.008H436.278V229.11Z" fill="#2197D4"></path></g><g opacity="0.3"><path d="M479.625 229.11H455.728V253.008H479.625V229.11Z" fill="#2197D4"></path></g><g opacity="0.3"><path d="M522.972 229.11H499.074V253.008H522.972V229.11Z" fill="#2197D4"></path></g><path d="M170.607 182.39H0.762695V251.38H170.607V182.39Z" fill="white"></path><path d="M170.62 251.38C170.62 251.38 170.62 250.96 170.607 250.147C170.607 249.333 170.607 248.139 170.58 246.564C170.58 243.414 170.554 238.795 170.528 232.837C170.502 220.934 170.475 203.703 170.423 182.39L170.607 182.574C127.404 182.6 67.2592 182.626 0.775593 182.653L1.03806 182.39C1.03806 206.551 1.03806 229.871 1.03806 251.38L0.775593 251.118C49.9887 251.17 92.4169 251.21 122.548 251.236C137.627 251.262 149.635 251.288 157.877 251.302C161.998 251.315 165.173 251.328 167.326 251.328C168.402 251.328 169.216 251.328 169.78 251.341C170.331 251.341 170.62 251.354 170.62 251.354C170.62 251.354 170.357 251.354 169.806 251.367C169.255 251.367 168.441 251.367 167.391 251.38C165.239 251.38 162.089 251.393 157.995 251.407C149.767 251.42 137.785 251.446 122.732 251.472C92.5481 251.498 50.0674 251.551 0.775593 251.59H0.5V251.328C0.5 229.818 0.5 206.498 0.5 182.338V182.075H0.775593C67.2592 182.101 127.404 182.141 170.607 182.154H170.79V182.338C170.751 203.703 170.712 220.96 170.685 232.902C170.659 238.847 170.646 243.454 170.633 246.59C170.633 248.139 170.62 249.32 170.607 250.134C170.607 250.934 170.593 251.328 170.593 251.328L170.62 251.38Z" fill="#2197D4"></path><path d="M0.933105 191.695C0.933105 191.55 38.8993 191.432 85.7239 191.432C132.549 191.432 170.515 191.55 170.515 191.695C170.515 191.839 132.562 191.957 85.7239 191.957C38.8862 191.957 0.933105 191.839 0.933105 191.695Z" fill="#2197D4"></path><g opacity="0.3"><path d="M8.04583 187.535C8.04583 188.217 7.49464 188.768 6.81222 188.768C6.1298 188.768 5.57861 188.217 5.57861 187.535C5.57861 186.852 6.1298 186.301 6.81222 186.301C7.49464 186.301 8.04583 186.852 8.04583 187.535Z" fill="#2197D4"></path></g><g opacity="0.3"><path d="M12.2714 187.535C12.2714 188.217 11.7202 188.768 11.0378 188.768C10.3554 188.768 9.8042 188.217 9.8042 187.535C9.8042 186.852 10.3554 186.301 11.0378 186.301C11.7202 186.301 12.2714 186.852 12.2714 187.535Z" fill="#2197D4"></path></g><g opacity="0.3"><path d="M16.4316 187.535C16.4316 188.217 15.8804 188.768 15.198 188.768C14.5155 188.768 13.9644 188.217 13.9644 187.535C13.9644 186.852 14.5155 186.301 15.198 186.301C15.8804 186.301 16.4316 186.852 16.4316 187.535Z" fill="#2197D4"></path></g><g opacity="0.3"><path d="M56.2223 202.915H15.1982V243.939H56.2223V202.915Z" fill="#2197D4"></path></g><path d="M158.861 213.9C158.861 214.044 137.745 214.162 111.708 214.162C85.6713 214.162 64.5557 214.044 64.5557 213.9C64.5557 213.755 85.6582 213.637 111.708 213.637C137.758 213.637 158.861 213.755 158.861 213.9Z" fill="#2197D4"></path><path d="M158.861 222.259C158.861 222.404 137.745 222.522 111.708 222.522C85.6713 222.522 64.5557 222.404 64.5557 222.259C64.5557 222.115 85.6582 221.997 111.708 221.997C137.758 221.997 158.861 222.115 158.861 222.259Z" fill="#2197D4"></path><path d="M125.265 230.619C125.265 230.619 125.055 230.658 124.648 230.671C124.189 230.685 123.598 230.698 122.876 230.724C121.262 230.75 119.071 230.776 116.367 230.816C110.816 230.842 103.257 230.868 94.9102 230.895C86.5637 230.868 79.0046 230.842 73.4402 230.816C70.7499 230.776 68.5451 230.75 66.931 230.724C66.2092 230.698 65.6317 230.685 65.1593 230.671C64.7525 230.658 64.5425 230.632 64.5425 230.619C64.5425 230.606 64.7525 230.58 65.1593 230.566C65.6186 230.553 66.2092 230.54 66.931 230.514C68.532 230.488 70.7368 230.462 73.4402 230.422C78.9914 230.396 86.5506 230.37 94.9102 230.343C103.257 230.37 110.816 230.396 116.367 230.422C119.057 230.462 121.262 230.488 122.876 230.514C123.598 230.54 124.176 230.553 124.648 230.566C125.055 230.58 125.265 230.606 125.265 230.619Z" fill="#2197D4"></path><path d="M295.424 95.6964C292.576 93.7935 288.665 94.9484 285.817 96.8513C282.97 98.7542 280.542 101.353 277.353 102.586C271.369 104.909 263.508 102.153 258.862 106.589C255.909 109.397 255.607 114.017 253.35 117.416C249.544 123.138 240.423 125.29 239.636 132.114C239.177 136.091 242.326 139.909 246.185 141.025C250.03 142.14 254.269 140.959 257.602 138.741C261.5 136.156 264.557 132.153 269.006 130.684C273.547 129.174 279.151 130.434 282.733 127.272C286.316 124.096 285.778 118.269 288.35 114.227C289.715 112.075 291.867 110.565 293.81 108.899C295.752 107.232 297.576 105.172 297.904 102.639C298.232 100.106 297.196 95.7883 295.45 95.6964" fill="#F5F5F5"></path><path d="M221.474 374.505C221.631 374.413 222.169 374.938 222.668 375.686C223.166 376.434 223.442 377.143 223.285 377.248C223.127 377.353 222.602 376.828 222.09 376.067C221.592 375.305 221.316 374.61 221.474 374.505Z" fill="#263238"></path><path d="M215.843 362.667C216.027 362.602 216.723 363.914 217.405 365.581C218.088 367.248 218.508 368.665 218.337 368.744C218.166 368.822 217.471 367.523 216.775 365.83C216.08 364.137 215.673 362.72 215.843 362.667Z" fill="#263238"></path><path d="M212.799 349.911C212.982 349.885 213.402 351.303 213.73 353.074C214.058 354.846 214.177 356.316 213.993 356.368C213.809 356.408 213.389 354.99 213.061 353.205C212.733 351.408 212.615 349.938 212.799 349.911Z" fill="#263238"></path><path d="M212.339 336.801C212.523 336.814 212.654 338.284 212.641 340.082C212.615 341.88 212.444 343.35 212.248 343.363C212.064 343.363 211.933 341.906 211.946 340.069C211.972 338.245 212.143 336.775 212.339 336.788V336.801Z" fill="#263238"></path><path d="M214.465 323.861C214.649 323.914 214.492 325.384 214.111 327.142C213.73 328.901 213.271 330.305 213.087 330.279C212.904 330.252 213.061 328.783 213.442 326.998C213.822 325.213 214.282 323.809 214.465 323.861Z" fill="#263238"></path><path d="M219.19 311.63C219.36 311.722 218.901 313.126 218.153 314.767C217.418 316.407 216.67 317.693 216.499 317.628C216.329 317.562 216.788 316.158 217.536 314.491C218.284 312.824 219.019 311.552 219.19 311.63Z" fill="#263238"></path><path d="M226.421 300.698C226.565 300.817 225.817 302.089 224.741 303.533C223.665 304.977 222.654 306.066 222.523 305.974C222.339 305.856 223.114 304.596 224.19 303.126C225.279 301.656 226.276 300.567 226.421 300.698Z" fill="#263238"></path><path d="M235.24 290.974C235.371 291.105 234.466 292.273 233.219 293.585C231.972 294.898 230.844 295.856 230.713 295.725C230.581 295.593 231.474 294.425 232.734 293.113C233.98 291.801 235.109 290.843 235.24 290.974Z" fill="#263238"></path><path d="M244.479 281.643C244.61 281.774 243.691 282.929 242.418 284.215C241.145 285.515 240.004 286.446 239.872 286.315C239.741 286.184 240.66 285.029 241.933 283.743C243.206 282.457 244.347 281.512 244.479 281.643Z" fill="#263238"></path><path d="M253.101 271.748C253.258 271.866 252.445 273.1 251.277 274.504C250.122 275.908 249.072 276.958 248.928 276.827C248.783 276.696 249.597 275.462 250.752 274.071C251.894 272.68 252.943 271.63 253.101 271.748Z" fill="#263238"></path><path d="M259.807 260.475C259.977 260.541 259.544 261.971 258.704 263.598C257.865 265.226 256.959 266.407 256.802 266.302C256.644 266.197 257.274 264.871 258.101 263.283C258.928 261.682 259.636 260.396 259.807 260.475Z" fill="#263238"></path><path d="M262.996 247.798C263.18 247.798 263.232 249.307 262.93 251.105C262.629 252.916 262.104 254.307 261.92 254.268C261.736 254.215 261.959 252.771 262.248 251C262.55 249.228 262.799 247.785 262.996 247.798Z" fill="#263238"></path><path d="M262.025 234.753C262.209 234.7 262.72 236.105 262.996 237.916C263.285 239.727 263.219 241.223 263.035 241.236C262.838 241.236 262.602 239.805 262.327 238.021C262.051 236.249 261.841 234.792 262.025 234.753Z" fill="#263238"></path><path d="M256.868 222.745C257.025 222.64 257.983 223.782 258.849 225.396C259.715 227.01 260.135 228.44 259.965 228.519C259.781 228.598 259.099 227.299 258.246 225.724C257.406 224.149 256.71 222.85 256.868 222.745Z" fill="#263238"></path><path d="M247.707 213.44C247.812 213.283 249.138 213.978 250.542 215.16C251.959 216.341 252.878 217.522 252.734 217.64C252.589 217.771 251.474 216.826 250.096 215.684C248.718 214.53 247.589 213.598 247.694 213.44H247.707Z" fill="#263238"></path><path d="M235.778 208.112C235.818 207.928 237.3 208.112 239.046 208.703C240.778 209.293 242.064 210.054 241.986 210.225C241.907 210.396 240.516 209.923 238.823 209.346C237.13 208.768 235.739 208.296 235.778 208.099V208.112Z" fill="#263238"></path><path d="M222.733 207.522C222.694 207.338 224.151 206.931 225.975 206.839C227.812 206.747 229.295 206.997 229.282 207.18C229.282 207.377 227.812 207.43 226.014 207.522C224.229 207.614 222.759 207.705 222.733 207.522Z" fill="#263238"></path><path d="M210.633 212.338C210.528 212.194 211.657 211.196 213.271 210.33C214.885 209.451 216.342 209.07 216.408 209.241C216.473 209.425 215.174 210.081 213.599 210.934C212.024 211.774 210.751 212.495 210.633 212.338Z" fill="#263238"></path><path d="M201.618 221.774C201.46 221.682 202.103 220.317 203.232 218.873C204.361 217.417 205.515 216.459 205.647 216.59C205.778 216.721 204.872 217.863 203.77 219.293C202.668 220.711 201.788 221.879 201.618 221.774Z" fill="#263238"></path><path d="M197.195 234.031C197.011 234.018 197.011 232.509 197.444 230.724C197.877 228.939 198.56 227.601 198.73 227.666C198.914 227.732 198.534 229.149 198.114 230.895C197.694 232.627 197.392 234.07 197.195 234.044V234.031Z" fill="#263238"></path><path d="M198.757 246.958C198.586 247.023 197.904 245.685 197.471 243.9C197.038 242.115 197.024 240.606 197.208 240.593C197.405 240.567 197.707 241.997 198.14 243.742C198.56 245.488 198.94 246.892 198.757 246.971V246.958Z" fill="#263238"></path><path d="M205.41 258.205C205.266 258.323 204.19 257.299 203.113 255.816C202.037 254.333 201.421 252.968 201.591 252.876C201.762 252.785 202.628 253.966 203.678 255.422C204.728 256.879 205.568 258.086 205.423 258.205H205.41Z" fill="#263238"></path><path d="M215.082 267.05C214.977 267.207 213.678 266.472 212.261 265.331C210.844 264.189 209.859 263.06 209.977 262.929C210.109 262.785 211.277 263.664 212.681 264.806C214.085 265.934 215.187 266.905 215.082 267.063V267.05Z" fill="#263238"></path><path d="M226.447 273.572C226.368 273.743 224.991 273.218 223.363 272.391C221.736 271.564 220.502 270.764 220.594 270.593C220.686 270.436 222.064 270.961 223.678 271.774C225.279 272.588 226.526 273.388 226.447 273.572Z" fill="#263238"></path><path d="M238.941 277.549C238.914 277.732 237.418 277.614 235.647 277.155C233.875 276.696 232.523 276.092 232.576 275.908C232.641 275.724 234.072 276.039 235.817 276.486C237.563 276.932 238.967 277.352 238.941 277.535V277.549Z" fill="#263238"></path><path d="M252.012 278.218C252.038 278.402 250.568 278.717 248.744 278.743C246.92 278.782 245.437 278.533 245.45 278.349C245.45 278.152 246.933 278.1 248.731 278.06C250.529 278.034 251.998 278.021 252.012 278.218Z" fill="#263238"></path><path d="M264.65 274.845C264.729 275.016 263.456 275.79 261.723 276.407C260.004 277.024 258.521 277.247 258.469 277.063C258.416 276.879 259.794 276.367 261.487 275.764C263.18 275.16 264.558 274.675 264.65 274.845Z" fill="#263238"></path><path d="M275.595 267.68C275.726 267.811 274.729 268.926 273.272 270.042C271.815 271.157 270.49 271.827 270.385 271.669C270.28 271.512 271.421 270.593 272.852 269.491C274.282 268.402 275.463 267.535 275.595 267.667V267.68Z" fill="#263238"></path><path d="M284.138 257.745C284.296 257.85 283.626 259.176 282.524 260.646C281.421 262.115 280.332 263.126 280.188 262.995C280.043 262.863 280.897 261.669 281.973 260.226C283.049 258.782 283.967 257.64 284.125 257.745H284.138Z" fill="#263238"></path><path d="M289.821 245.947C290.004 246 289.703 247.47 289.007 249.162C288.325 250.855 287.524 252.115 287.367 252.037C287.196 251.958 287.708 250.58 288.377 248.9C289.046 247.233 289.637 245.882 289.821 245.947Z" fill="#263238"></path><path d="M292.353 233.086C292.537 233.086 292.589 234.582 292.34 236.393C292.091 238.204 291.645 239.622 291.461 239.582C291.277 239.543 291.421 238.086 291.658 236.301C291.907 234.517 292.156 233.073 292.353 233.086Z" fill="#263238"></path><path d="M292.025 219.976C292.209 219.95 292.485 221.406 292.616 223.217C292.76 225.042 292.721 226.511 292.524 226.511C292.327 226.511 292.065 225.055 291.933 223.27C291.789 221.472 291.828 220.002 292.025 219.976Z" fill="#263238"></path><path d="M289.178 207.167C289.361 207.115 289.886 208.493 290.372 210.251C290.844 212.01 291.08 213.467 290.897 213.506C290.713 213.545 290.175 212.167 289.703 210.422C289.23 208.677 288.994 207.22 289.178 207.167Z" fill="#263238"></path><path d="M284.151 195.041C284.322 194.949 285.109 196.209 285.896 197.85C286.631 199.516 287.091 200.934 286.907 200.999C286.736 201.065 286.001 199.792 285.266 198.138C284.479 196.511 283.967 195.133 284.138 195.041H284.151Z" fill="#263238"></path><path d="M277.694 183.611C277.852 183.519 278.731 184.7 279.65 186.275C280.568 187.836 281.185 189.188 281.015 189.28C280.857 189.372 279.978 188.178 279.059 186.616C278.141 185.054 277.537 183.703 277.694 183.611Z" fill="#263238"></path><path d="M271.172 172.206C271.343 172.115 272.182 173.335 273.062 174.91C273.941 176.498 274.518 177.849 274.348 177.941C274.19 178.033 273.337 176.826 272.458 175.238C271.579 173.65 271.001 172.285 271.172 172.206Z" fill="#263238"></path><path d="M266.054 160.146C266.238 160.093 266.894 161.419 267.524 163.099C268.154 164.792 268.521 166.209 268.351 166.288C268.18 166.366 267.524 165.041 266.881 163.335C266.251 161.629 265.87 160.198 266.054 160.146Z" fill="#263238"></path><path d="M263.81 147.232C264.006 147.232 264.203 148.676 264.387 150.474C264.571 152.259 264.689 153.728 264.505 153.768C264.321 153.807 263.901 152.377 263.718 150.553C263.521 148.742 263.626 147.245 263.81 147.245V147.232Z" fill="#263238"></path><path d="M264.899 134.175C265.083 134.214 264.925 135.671 264.663 137.455C264.401 139.24 264.138 140.684 263.954 140.671C263.771 140.671 263.718 139.161 263.994 137.364C264.256 135.552 264.729 134.135 264.912 134.175H264.899Z" fill="#263238"></path><path d="M269.177 121.799C269.348 121.891 268.823 123.256 268.128 124.922C267.432 126.589 266.828 127.915 266.645 127.862C266.474 127.81 266.789 126.353 267.498 124.66C268.206 122.967 269.007 121.72 269.177 121.799Z" fill="#263238"></path><path d="M276.5 110.933C276.645 111.064 275.779 112.245 274.676 113.676C273.574 115.093 272.642 116.235 272.485 116.13C272.327 116.025 273.023 114.699 274.138 113.256C275.254 111.812 276.369 110.815 276.5 110.933Z" fill="#263238"></path><path d="M286.343 102.298C286.448 102.455 285.319 103.387 283.889 104.489C282.458 105.592 281.277 106.445 281.146 106.3C281.028 106.156 282.025 105.053 283.469 103.938C284.912 102.822 286.238 102.127 286.343 102.284V102.298Z" fill="#263238"></path><path d="M298.023 96.3526C298.088 96.5363 296.75 97.1532 295.109 97.8749C293.456 98.5836 292.091 99.1217 291.999 98.9642C291.907 98.7936 293.154 97.9799 294.834 97.2581C296.513 96.5363 297.957 96.1951 298.023 96.3657V96.3526Z" fill="#263238"></path><path d="M307.537 93.951C307.563 94.1348 306.868 94.4235 305.989 94.581C305.109 94.7384 304.348 94.7253 304.309 94.5416C304.269 94.3579 304.965 94.0691 305.857 93.9117C306.75 93.7411 307.511 93.7673 307.537 93.951Z" fill="#263238"></path><path d="M334.322 55.3024C334.322 55.3024 349.742 44.3049 371.068 51.4047C371.068 51.4047 372.827 69.0689 355.714 83.111" fill="#2197D4"></path><path d="M285.739 87.9273C286.395 88.9116 303.128 115.802 303.128 115.802L353.351 84.8564C362.118 79.4496 364.388 67.704 358.26 59.4231C352.669 51.8771 342.131 50.053 334.336 55.2892L285.739 87.9142V87.9273Z" fill="#2197D4"></path><path d="M303.114 115.815L301.986 134.739C301.986 134.739 334.532 118.977 326.409 101.458L303.101 115.815H303.114Z" fill="#263238"></path><path d="M308.994 72.3104C308.994 72.3104 286.92 62.5728 268.757 76.8511L285.739 87.9273L309.007 72.3104H308.994Z" fill="#263238"></path><path d="M308.85 87.9405L277.432 107.586C277.432 107.586 278.508 110.959 279.361 110.683C280.07 110.447 303.666 96.5101 311.33 91.9825C312.577 91.2476 312.866 89.5678 311.947 88.4392C311.186 87.5205 309.86 87.2974 308.85 87.9273V87.9405Z" fill="#263238"></path><path d="M347.574 75.3626C348.845 69.9583 345.495 64.5464 340.091 63.2748C334.686 62.0033 329.275 65.3536 328.003 70.7579C326.731 76.1622 330.082 81.5741 335.486 82.8456C340.89 84.1172 346.302 80.7669 347.574 75.3626Z" fill="#FAFAFA"></path><path d="M347.839 73.0584C347.761 73.0584 347.8 72.166 347.393 70.6306C346.986 69.1345 345.976 66.9429 343.719 65.25C342.603 64.4232 341.199 63.7276 339.585 63.452C337.984 63.1896 336.173 63.2421 334.467 63.8982C332.747 64.515 331.12 65.683 329.952 67.2972C328.758 68.8852 328.089 70.9324 328.062 73.0453C328.076 75.1582 328.758 77.1923 329.952 78.7934C331.107 80.4076 332.747 81.5756 334.467 82.1924C336.186 82.8486 337.984 82.9142 339.585 82.6386C341.199 82.363 342.603 81.6674 343.719 80.8407C345.976 79.1477 346.986 76.9561 347.393 75.46C347.8 73.9377 347.761 73.0322 347.839 73.0322C347.866 73.0322 347.879 73.2553 347.879 73.6752C347.879 74.0952 347.839 74.7251 347.656 75.5125C347.328 77.0742 346.343 79.384 344.021 81.2081C342.866 82.1005 341.396 82.8617 339.703 83.1766C338.01 83.4785 336.094 83.4391 334.257 82.7567C332.419 82.1136 330.674 80.88 329.427 79.1609C328.141 77.4679 327.419 75.2763 327.393 73.0191C327.406 70.7618 328.141 68.5702 329.427 66.8773C330.674 65.1581 332.432 63.9245 334.257 63.2814C336.094 62.599 338.01 62.5596 339.703 62.8615C341.409 63.1765 342.879 63.9376 344.021 64.83C346.343 66.6542 347.328 68.977 347.656 70.5256C347.839 71.313 347.892 71.9429 347.879 72.3629C347.879 72.7828 347.879 73.0059 347.839 73.0059V73.0584Z" fill="#263238"></path><path d="M360.084 79.7645C359.952 79.7645 359.808 77.8091 359.034 74.7514C358.666 73.2159 358.076 71.4311 357.288 69.5151C356.475 67.5991 355.438 65.5649 354.152 63.5439C352.839 61.536 351.396 59.7512 349.992 58.2158C348.561 56.7066 347.183 55.4336 345.936 54.4625C343.469 52.5071 341.737 51.5622 341.803 51.4441C341.829 51.4047 342.275 51.6147 343.049 52.0346C343.443 52.2446 343.929 52.5071 344.454 52.8614C344.978 53.2157 345.608 53.5832 346.225 54.0819C347.524 55.0136 348.955 56.2735 350.438 57.7827C351.895 59.3181 353.377 61.1292 354.716 63.1765C356.028 65.2368 357.065 67.3235 357.866 69.292C358.627 71.2605 359.178 73.0978 359.506 74.6595C359.703 75.4338 359.782 76.1556 359.887 76.7855C359.992 77.4154 360.044 77.9535 360.07 78.3997C360.136 79.2921 360.136 79.7777 360.097 79.7908L360.084 79.7645Z" fill="#263238"></path><path d="M357.367 81.2081C357.236 81.2212 357.078 79.2265 356.291 76.1162C355.91 74.5545 355.307 72.7435 354.519 70.7881C353.692 68.8458 352.643 66.7592 351.33 64.6988C350.005 62.6515 348.548 60.8273 347.118 59.2657C345.674 57.7302 344.27 56.4179 343.01 55.4336C340.516 53.4257 338.758 52.4414 338.824 52.3365C338.85 52.2971 339.296 52.5202 340.097 52.9533C340.503 53.1632 340.976 53.4388 341.514 53.8063C342.052 54.1606 342.682 54.5543 343.312 55.053C344.624 56.011 346.081 57.2971 347.577 58.8457C349.047 60.4205 350.543 62.2578 351.895 64.3444C353.22 66.4442 354.27 68.5702 355.084 70.565C355.858 72.5729 356.422 74.4364 356.75 76.0243C356.947 76.8117 357.039 77.5467 357.144 78.1766C357.249 78.8065 357.301 79.3708 357.328 79.817C357.393 80.7225 357.406 81.2212 357.354 81.2212L357.367 81.2081Z" fill="#263238"></path><path d="M480.071 323.586H470.924V353.14H480.071V323.586Z" fill="#2197D4"></path><path d="M496.909 311.433H487.762V353.14H496.909V311.433Z" fill="#2197D4"></path><path d="M514.836 305.751H505.688V353.14H514.836V305.751Z" fill="#2197D4"></path><path d="M532.749 299.754H523.602V353.14H532.749V299.754Z" fill="#2197D4"></path><path d="M162.588 361.933C162.588 361.933 163.336 361.985 164.557 362.549C165.751 363.101 167.431 364.308 168.481 366.513C168.993 367.602 169.334 368.914 169.281 370.345C169.216 371.762 168.848 373.284 167.969 374.636C167.549 375.319 167.011 375.948 166.368 376.5C165.738 377.051 165.003 377.523 164.202 377.878C162.615 378.599 160.725 378.796 158.914 378.403C157.103 377.983 155.475 376.998 154.347 375.673C153.769 375.017 153.31 374.282 152.982 373.507C152.641 372.746 152.418 371.933 152.326 371.145C152.103 369.544 152.418 368.009 152.969 366.696C153.533 365.384 154.399 364.347 155.331 363.573C157.208 362.024 159.255 361.657 160.567 361.657C161.906 361.657 162.601 361.946 162.601 361.946C162.601 361.998 161.88 361.801 160.567 361.854C159.281 361.906 157.326 362.326 155.541 363.835C154.675 364.584 153.848 365.594 153.323 366.854C152.811 368.101 152.536 369.584 152.759 371.093C152.851 371.854 153.061 372.602 153.389 373.324C153.704 374.059 154.137 374.754 154.688 375.371C155.764 376.631 157.3 377.55 159.006 377.943C160.725 378.311 162.496 378.14 164.006 377.458C164.767 377.13 165.462 376.697 166.053 376.172C166.657 375.66 167.182 375.069 167.575 374.413C168.415 373.14 168.796 371.683 168.874 370.345C168.94 368.993 168.625 367.72 168.166 366.67C167.208 364.544 165.607 363.324 164.465 362.733C163.297 362.129 162.562 362.011 162.588 361.946V361.933Z" fill="#263238"></path><path d="M169.255 353.022C169.255 353.022 169.255 352.93 169.242 352.733C169.242 352.51 169.242 352.221 169.216 351.841C169.216 351.027 169.189 349.859 169.163 348.337L169.229 348.415C167.286 347.995 164.74 347.431 161.656 346.762L161.788 346.696C161.184 347.982 160.515 349.413 159.793 350.935L159.754 351.014H159.662C158.087 351.079 156.42 351.355 154.727 351.893L154.635 351.919L154.57 351.854C153.533 350.83 152.404 349.715 151.236 348.56L151.446 348.586C149.386 349.898 147.208 351.289 144.911 352.746L144.99 352.523C145.475 353.888 146.013 355.397 146.564 356.933L146.604 357.051L146.525 357.143C145.475 358.284 144.452 359.675 143.651 361.237L143.599 361.342H143.467C142.011 361.342 140.41 361.342 138.782 361.355L138.992 361.185C138.467 363.56 137.89 366.119 137.299 368.757L137.181 368.507C138.494 369.137 139.95 369.82 141.407 370.515L141.525 370.568V370.699C141.591 372.261 141.866 373.967 142.391 375.62L142.431 375.752L142.326 375.857C141.289 376.893 140.16 378.035 139.018 379.177L139.045 378.888C140.357 380.962 141.761 383.18 143.192 385.437L142.916 385.345C144.307 384.846 145.816 384.308 147.326 383.77L147.457 383.718L147.562 383.809C148.73 384.886 150.121 385.896 151.643 386.683C151.696 386.775 151.512 386.473 151.774 386.893V386.92V387.025V387.169V387.458V388.048V389.216C151.774 390.004 151.774 390.778 151.774 391.552L151.591 391.316C154.15 391.893 156.67 392.458 159.15 393.009L158.887 393.14C159.57 391.723 160.239 390.306 160.895 388.914L160.961 388.783H161.105C162.798 388.718 164.452 388.416 166.027 387.93L166.158 387.891L166.263 387.996C167.378 389.111 168.494 390.214 169.583 391.303L169.307 391.277C171.538 389.859 173.73 388.481 175.856 387.13L175.764 387.392C175.239 385.896 174.714 384.426 174.203 382.983L174.163 382.865L174.255 382.773C175.423 381.526 176.381 380.135 177.142 378.691L177.195 378.586H177.313C178.914 378.586 180.476 378.586 181.998 378.586L181.801 378.744C182.405 376.08 182.969 373.573 183.52 371.185L183.625 371.395C182.142 370.686 180.738 370.017 179.399 369.374L179.308 369.334V369.229C179.242 367.444 178.927 365.804 178.455 364.295L178.428 364.203L178.494 364.137C179.701 362.93 180.791 361.854 181.814 360.83V361.001C180.2 358.455 178.835 356.289 177.68 354.439L177.811 354.478C176.04 355.095 174.596 355.594 173.389 356.027H173.35L173.31 356.014C172.063 354.846 171.014 354.15 170.305 353.691C169.964 353.481 169.688 353.324 169.504 353.205C169.321 353.1 169.229 353.048 169.242 353.048C169.242 353.048 169.347 353.087 169.531 353.179C169.714 353.271 169.99 353.415 170.357 353.639C171.079 354.072 172.155 354.754 173.428 355.909H173.35C174.557 355.463 176 354.938 177.759 354.295L177.838 354.268L177.89 354.347C179.071 356.198 180.449 358.35 182.063 360.883L182.129 360.975L182.05 361.053C181.027 362.077 179.951 363.179 178.756 364.387L178.796 364.229C179.281 365.765 179.609 367.431 179.688 369.242L179.596 369.098C180.948 369.728 182.339 370.397 183.835 371.093L183.966 371.158L183.94 371.303C183.402 373.691 182.851 376.211 182.26 378.875L182.221 379.032H182.063C180.541 379.032 178.993 379.032 177.378 379.046L177.562 378.941C176.788 380.424 175.804 381.841 174.622 383.127L174.662 382.904C175.174 384.347 175.699 385.817 176.237 387.313L176.289 387.484L176.145 387.576C174.019 388.928 171.84 390.319 169.596 391.736L169.439 391.828L169.307 391.697C168.218 390.607 167.103 389.505 165.987 388.39L166.223 388.442C164.609 388.954 162.916 389.256 161.184 389.321L161.381 389.19C160.725 390.581 160.055 391.998 159.373 393.416L159.294 393.586L159.111 393.547C156.63 392.996 154.097 392.432 151.551 391.854L151.368 391.815V391.618C151.368 390.844 151.368 390.069 151.368 389.282V388.101V387.51V387.222V387.077V386.998V386.959V386.933C151.63 387.353 151.433 387.051 151.499 387.143C149.937 386.329 148.507 385.306 147.326 384.203L147.562 384.256C146.053 384.794 144.543 385.332 143.152 385.83L142.969 385.896L142.864 385.739C141.433 383.481 140.029 381.263 138.717 379.19L138.612 379.032L138.743 378.901C139.885 377.759 141.013 376.618 142.05 375.581L141.997 375.817C141.459 374.124 141.184 372.379 141.118 370.778L141.249 370.975C139.78 370.279 138.336 369.584 137.024 368.967L136.866 368.888L136.906 368.717C137.496 366.093 138.074 363.534 138.612 361.158L138.651 360.988H138.822C140.449 360.988 142.05 360.988 143.507 360.988L143.323 361.093C144.15 359.505 145.186 358.087 146.276 356.919L146.236 357.116C145.685 355.568 145.16 354.072 144.675 352.694L144.622 352.549L144.753 352.471C147.05 351.014 149.242 349.636 151.315 348.337L151.433 348.258L151.525 348.35C152.693 349.518 153.809 350.633 154.832 351.67L154.675 351.631C156.394 351.093 158.1 350.83 159.701 350.778L159.583 350.856C160.318 349.334 161 347.917 161.604 346.631L161.643 346.539L161.735 346.565C164.806 347.274 167.352 347.864 169.294 348.31H169.36V348.389C169.347 349.898 169.334 351.053 169.334 351.867C169.334 352.247 169.334 352.549 169.321 352.759C169.321 352.956 169.321 353.061 169.307 353.074L169.255 353.022Z" fill="#263238"></path><path fill-rule="evenodd" clip-rule="evenodd" d="M154.976 294.163C156.656 295.042 158.192 296.118 159.543 297.378L164.425 295.646L169.005 302.89L165.357 306.565C165.908 308.323 166.236 310.174 166.315 312.063L170.987 314.281L169.11 322.641H163.94C163.061 324.334 161.984 325.869 160.725 327.221L162.457 332.103L155.213 336.683L151.538 333.035C149.78 333.586 147.929 333.914 146.039 333.993L143.821 338.665L135.462 336.788V331.604C133.769 330.725 132.247 329.649 130.882 328.389L126 330.121L121.42 322.877L125.081 319.203C124.53 317.444 124.202 315.594 124.123 313.704L119.451 311.486L121.328 303.126H126.498C127.378 301.433 128.454 299.911 129.714 298.546L127.981 293.664L135.226 289.084L138.9 292.746C140.659 292.194 142.509 291.866 144.399 291.788L146.617 287.116L154.976 288.992V294.176V294.163ZM147.601 304.006C142.653 302.89 137.732 306.013 136.617 310.961C135.501 315.909 138.625 320.83 143.572 321.945C148.533 323.061 153.441 319.937 154.556 314.99C155.672 310.029 152.549 305.121 147.601 304.006Z" fill="#2197D4"></path><g opacity="0.8"><path fill-rule="evenodd" clip-rule="evenodd" d="M154.976 294.163C156.656 295.042 158.192 296.118 159.543 297.378L164.425 295.646L169.005 302.89L165.357 306.565C165.908 308.323 166.236 310.174 166.315 312.063L170.987 314.281L169.11 322.641H163.94C163.061 324.334 161.984 325.869 160.725 327.221L162.457 332.103L155.213 336.683L151.538 333.035C149.78 333.586 147.929 333.914 146.039 333.993L143.821 338.665L135.462 336.788V331.604C133.769 330.725 132.247 329.649 130.882 328.389L126 330.121L121.42 322.877L125.081 319.203C124.53 317.444 124.202 315.594 124.123 313.704L119.451 311.486L121.328 303.126H126.498C127.378 301.433 128.454 299.911 129.714 298.546L127.981 293.664L135.226 289.084L138.9 292.746C140.659 292.194 142.509 291.866 144.399 291.788L146.617 287.116L154.976 288.992V294.176V294.163ZM147.601 304.006C142.653 302.89 137.732 306.013 136.617 310.961C135.501 315.909 138.625 320.83 143.572 321.945C148.533 323.061 153.441 319.937 154.556 314.99C155.672 310.029 152.549 305.121 147.601 304.006Z" fill="white"></path></g><path fill-rule="evenodd" clip-rule="evenodd" d="M124.74 343.415C125.711 343.927 126.604 344.557 127.404 345.292L130.239 344.281L132.903 348.494L130.777 350.633C131.105 351.657 131.289 352.733 131.341 353.835L134.058 355.135L132.969 360.003H129.95C129.438 360.988 128.809 361.88 128.074 362.668L129.084 365.502L124.871 368.166L122.732 366.04C121.709 366.368 120.633 366.552 119.53 366.591L118.244 369.308L113.375 368.219V365.2C112.391 364.689 111.499 364.059 110.711 363.324L107.877 364.334L105.212 360.122L107.338 357.982C107.01 356.959 106.827 355.883 106.774 354.78L104.058 353.481L105.147 348.612H108.165C108.677 347.628 109.307 346.736 110.042 345.948L109.031 343.114L113.244 340.449L115.383 342.575C116.407 342.247 117.483 342.064 118.585 342.011L119.885 339.295L124.753 340.384V343.402L124.74 343.415ZM120.449 349.137C117.562 348.494 114.701 350.305 114.058 353.192C113.415 356.08 115.226 358.94 118.113 359.583C121 360.227 123.861 358.415 124.504 355.528C125.147 352.641 123.336 349.78 120.449 349.137Z" fill="#2197D4"></path><g opacity="0.4"><path fill-rule="evenodd" clip-rule="evenodd" d="M124.74 343.415C125.711 343.927 126.604 344.557 127.404 345.292L130.239 344.281L132.903 348.494L130.777 350.633C131.105 351.657 131.289 352.733 131.341 353.835L134.058 355.135L132.969 360.003H129.95C129.438 360.988 128.809 361.88 128.074 362.668L129.084 365.502L124.871 368.166L122.732 366.04C121.709 366.368 120.633 366.552 119.53 366.591L118.244 369.308L113.375 368.219V365.2C112.391 364.689 111.499 364.059 110.711 363.324L107.877 364.334L105.212 360.122L107.338 357.982C107.01 356.959 106.827 355.883 106.774 354.78L104.058 353.481L105.147 348.612H108.165C108.677 347.628 109.307 346.736 110.042 345.948L109.031 343.114L113.244 340.449L115.383 342.575C116.407 342.247 117.483 342.064 118.585 342.011L119.885 339.295L124.753 340.384V343.402L124.74 343.415ZM120.449 349.137C117.562 348.494 114.701 350.305 114.058 353.192C113.415 356.08 115.226 358.94 118.113 359.583C121 360.227 123.861 358.415 124.504 355.528C125.147 352.641 123.336 349.78 120.449 349.137Z" fill="white"></path></g><path d="M414.585 295.121C420.11 293.69 424.204 288.034 423.85 282.339C423.693 279.766 422.735 277.273 422.84 274.701C423.01 270.711 425.661 267.339 427.656 263.874C429.651 260.409 430.989 255.842 428.666 252.601C427.157 250.488 424.493 249.543 422.669 247.706C420.884 245.908 420.031 243.414 419.073 241.065C418.115 238.716 416.882 236.288 414.677 235.042C412.472 233.795 409.099 234.346 408.194 236.721" fill="#263238"></path><path d="M390.74 230.383C394.677 227.889 395.622 222.102 393.496 217.955C391.37 213.821 386.842 211.301 382.249 210.553C375.595 209.477 368.482 211.839 363.784 216.669C361.251 219.28 359.191 222.692 355.753 223.887C352.734 224.937 349.388 223.992 346.212 224.398C341.96 224.95 338.311 227.981 336.12 231.669C333.941 235.37 333.036 239.674 332.537 243.939C332.078 247.85 331.763 252.141 329.059 255.002C326.408 257.785 322.235 258.375 318.941 260.357C312.747 264.084 310.739 273.31 314.834 279.268C316.133 281.171 318.009 282.916 318.154 285.213C318.298 287.312 316.933 289.176 316.303 291.184C314.663 296.341 318.889 302.483 324.296 302.798C327.025 302.956 329.952 301.893 332.393 303.113C334.821 304.32 335.726 307.26 337.288 309.478C340.346 313.861 346.737 315.515 351.54 313.153C353.548 312.168 355.438 310.541 357.682 310.698C359.913 310.843 361.658 312.746 363.85 313.179C366.724 313.73 369.44 311.617 371.146 309.255C372.852 306.88 374.047 304.084 376.225 302.142C379.086 299.596 383.102 298.966 386.711 297.719C394.69 294.977 401.37 288.638 404.519 280.803C407.682 272.968 407.262 263.782 403.417 256.262" fill="#263238"></path><path d="M399.375 235.54C402.617 235.895 405.058 238.664 404.979 241.931L401.226 326.801C401.068 336.827 386.422 342.457 375.687 342.208C364.847 341.959 364.506 336.644 364.362 327.103C364.139 311.171 364.152 305.187 364.152 305.278C364.152 305.278 350.464 302.969 347.669 285.095C346.278 276.21 346.75 261.643 347.537 249.727C348.233 239.005 355.372 225.868 366.042 227.023L399.375 235.527V235.54Z" fill="#FFBE9D"></path><path d="M364.165 305.292C364.165 305.292 376.186 306.092 388.102 298.966C388.102 298.966 382.039 311.565 364.165 309.859V305.305V305.292Z" fill="#EB996E"></path><path d="M373.824 253.519C374.06 254.189 376.527 253.874 379.415 254.228C382.315 254.53 384.651 255.383 385.031 254.779C385.202 254.491 384.795 253.861 383.85 253.205C382.918 252.548 381.422 251.932 379.69 251.735C377.958 251.538 376.357 251.813 375.307 252.233C374.244 252.653 373.706 253.178 373.811 253.506L373.824 253.519Z" fill="#263238"></path><path d="M351.606 250.199C352.039 250.764 353.732 250.186 355.779 250.16C357.826 250.068 359.545 250.54 359.952 249.963C360.123 249.674 359.86 249.123 359.099 248.585C358.351 248.06 357.117 247.627 355.713 247.653C354.309 247.693 353.088 248.204 352.38 248.769C351.658 249.346 351.422 249.924 351.606 250.199Z" fill="#263238"></path><path d="M387.643 229.74C391.737 226.984 397.039 225.724 401.803 227.089C406.567 228.454 410.517 232.758 410.688 237.614C410.793 240.777 409.428 244.123 410.832 246.971C412.171 249.674 415.452 250.777 417.774 252.745C421.436 255.829 422.512 261.472 420.242 265.632C418.286 269.215 414.192 271.84 413.85 275.882C413.522 279.688 416.738 282.903 417.512 286.643C418.378 290.764 416.095 295.042 412.814 297.772C409.546 300.515 405.399 302.011 401.357 303.467C398.207 304.609 394.821 305.751 391.554 305.016C387.656 304.137 384.743 300.515 384.205 296.63C383.666 292.746 385.268 288.769 387.932 285.843C390.228 283.31 393.443 281.171 393.995 277.837C394.848 272.64 388.667 268.375 389.047 263.126C389.244 260.422 391.147 258.178 392.748 255.947C394.336 253.716 395.727 250.921 394.743 248.375C393.47 245.068 389.139 244.215 386.514 241.787C384.323 239.766 383.43 236.485 384.323 233.664C385.202 230.842 387.827 228.611 390.806 228.139" fill="#263238"></path><path d="M389.572 225.711C389.585 229.294 387.932 232.837 385.189 235.133C382.446 237.43 378.666 238.427 375.149 237.784C372.42 237.286 369.428 235.908 367.065 237.364C364.585 238.9 364.48 242.64 362.275 244.556C359.126 247.286 354.112 244.727 350.123 245.908C347.039 246.827 345.11 249.779 343.049 252.26C341.002 254.74 337.931 257.102 334.834 256.184C335.031 253.401 335.228 250.606 336.054 247.942C336.881 245.278 338.404 242.745 340.74 241.223C342.013 240.396 343.495 239.884 344.69 238.926C347.249 236.853 347.852 233.257 349.427 230.37C351.461 226.643 355.412 224.031 359.637 223.598C363.154 223.244 366.777 224.293 370.202 223.427C372.735 222.784 374.952 221.144 377.512 220.658C382.512 219.713 387.157 223.296 390.779 226.866" fill="#263238"></path><path d="M422.21 268.415C422.118 268.388 422.735 267.732 422.604 266.354C422.499 265.003 421.37 263.087 419.008 262.247C417.866 261.787 416.527 261.512 415.084 261.184C413.64 260.842 412.039 260.409 410.635 259.346C409.191 258.31 408.404 256.407 408.325 254.569C408.207 252.706 408.509 250.829 408.601 248.939C408.64 247.994 408.614 247.076 408.456 246.197C408.273 245.317 407.918 244.53 407.407 243.847C406.33 242.509 404.651 241.918 403.102 241.38C401.527 240.882 399.992 240.304 398.719 239.49C397.433 238.703 396.357 237.784 395.491 236.853C393.745 234.976 392.826 233.086 392.341 231.761C392.105 231.091 391.947 230.567 391.882 230.199C391.803 229.832 391.777 229.635 391.803 229.635C391.868 229.622 392.039 230.383 392.59 231.669C393.141 232.942 394.113 234.753 395.845 236.525C397.564 238.336 400.097 239.91 403.312 240.79C404.861 241.315 406.685 241.905 407.932 243.428C408.522 244.189 408.929 245.107 409.126 246.065C409.296 247.023 409.323 248.008 409.283 248.979C409.178 250.921 408.89 252.771 408.995 254.53C409.086 256.275 409.743 257.903 411.029 258.861C412.289 259.832 413.811 260.278 415.228 260.646C416.659 261 418.024 261.302 419.205 261.814C420.386 262.312 421.383 263.034 421.974 263.887C422.577 264.727 422.84 265.619 422.879 266.341C422.919 267.076 422.735 267.627 422.551 267.955C422.381 268.297 422.223 268.428 422.21 268.415Z" fill="#455A64"></path><path d="M316.96 279.57C316.96 279.57 316.855 279.53 316.671 279.438C316.487 279.333 316.225 279.123 316.002 278.756C315.555 278.021 315.529 276.604 316.369 275.226C316.763 274.53 317.406 273.848 318.285 273.402C319.138 272.942 320.122 272.588 321.159 272.194C322.183 271.787 323.285 271.328 324.164 270.488C325.044 269.648 325.595 268.441 325.883 267.102C326.185 265.764 326.277 264.294 326.513 262.772C326.737 261.262 327.222 259.609 328.285 258.27C330.372 255.527 333.771 254.071 336.317 251.498C337.563 250.199 338.508 248.572 339.112 246.761C339.729 244.963 340.07 243.021 340.372 241.039C340.923 237.115 341.487 232.719 344.125 229.123C345.411 227.338 347.38 226.026 349.519 225.645C351.645 225.225 353.758 225.54 355.739 225.803C357.734 226.078 359.69 226.38 361.553 226.144C363.43 225.934 365.083 225.028 366.304 223.69C368.745 221.065 370.149 217.522 373.141 215.711C376.041 213.913 379.427 213.69 382.17 214.464C384.952 215.238 387 217.128 388.115 219.083C389.27 221.039 389.637 223.02 389.664 224.595C389.69 226.183 389.375 227.391 389.086 228.165C388.797 228.939 388.561 229.307 388.561 229.307C388.522 229.294 388.719 228.9 388.955 228.112C389.191 227.338 389.467 226.144 389.388 224.595C389.322 223.06 388.929 221.144 387.787 219.267C386.671 217.404 384.703 215.632 382.039 214.923C379.414 214.215 376.173 214.464 373.443 216.183C372.091 217.036 370.989 218.309 369.992 219.74C368.981 221.157 368.062 222.732 366.75 224.123C366.094 224.818 365.346 225.448 364.467 225.908C363.587 226.341 362.629 226.682 361.632 226.787C359.637 227.036 357.629 226.734 355.648 226.459C353.666 226.196 351.619 225.908 349.65 226.301C347.682 226.656 345.897 227.85 344.676 229.53C343.443 231.196 342.655 233.152 342.117 235.133C341.579 237.115 341.343 239.136 341.028 241.131C340.726 243.126 340.372 245.094 339.716 246.971C339.086 248.834 338.088 250.567 336.763 251.932C334.073 254.596 330.687 256.026 328.731 258.598C327.734 259.858 327.275 261.354 327.025 262.85C326.776 264.333 326.671 265.816 326.343 267.207C326.041 268.585 325.424 269.911 324.453 270.803C323.482 271.709 322.327 272.155 321.29 272.549C320.24 272.929 319.269 273.257 318.429 273.69C317.589 274.097 316.999 274.727 316.592 275.37C315.765 276.669 315.739 277.995 316.12 278.69C316.526 279.386 316.999 279.53 316.96 279.57Z" fill="#455A64"></path><path d="M273.114 402.589L304.807 399.689C304.807 399.689 324.309 348.31 348.351 335.856L363.928 363.061L330.582 425.7H265.476L273.101 402.589H273.114Z" fill="#2197D4"></path><path opacity="0.3" d="M273.114 402.589L304.807 399.689C304.807 399.689 324.309 348.31 348.351 335.856L363.928 363.061L330.582 425.7H265.476L273.101 402.589H273.114Z" fill="black"></path><path d="M285.634 417.091C285.476 416.999 286.67 414.689 288.311 411.959C289.951 409.216 291.408 407.077 291.565 407.182C291.723 407.274 290.529 409.571 288.888 412.314C287.248 415.056 285.791 417.196 285.634 417.091Z" fill="#FAFAFA"></path><path d="M308.088 416.474C307.944 416.592 306.211 414.676 304.216 412.196C302.222 409.715 300.726 407.615 300.87 407.497C301.014 407.379 302.747 409.295 304.741 411.776C306.736 414.256 308.232 416.356 308.075 416.474H308.088Z" fill="#FAFAFA"></path><path d="M311.986 404.689C311.802 404.689 311.645 402.825 311.645 400.529C311.645 398.232 311.802 396.369 311.986 396.369C312.169 396.369 312.327 398.232 312.327 400.529C312.327 402.825 312.169 404.689 311.986 404.689Z" fill="#FAFAFA"></path><path d="M300.831 423.062C300.726 423.219 299.374 422.511 297.799 421.487C296.224 420.463 295.043 419.505 295.148 419.348C295.253 419.19 296.605 419.899 298.18 420.923C299.754 421.946 300.936 422.904 300.831 423.062Z" fill="#FAFAFA"></path><path d="M319.033 375.83C319.204 375.909 318.219 378.468 316.841 381.552C315.463 384.636 314.203 387.077 314.033 386.998C313.862 386.92 314.847 384.361 316.225 381.277C317.602 378.193 318.862 375.752 319.033 375.83Z" fill="#FAFAFA"></path><path d="M331.881 355.016C331.999 355.161 330.857 356.224 329.348 357.366C327.839 358.507 326.513 359.321 326.408 359.164C326.29 359.019 327.432 357.956 328.941 356.814C330.45 355.673 331.776 354.859 331.881 355.016Z" fill="#FAFAFA"></path><path d="M379.296 421.631L395.648 355.607C398.496 344.111 409.782 336.801 421.435 338.901C433.43 341.066 441.514 352.405 439.651 364.439L429.638 428.967C427.183 442.485 416.435 452.97 402.853 455.083L389.86 457.104L379.309 421.618L379.296 421.631Z" fill="#2197D4"></path><path d="M430.806 334.649C430.727 334.806 428.982 332.667 424.979 331.722C423.01 331.263 420.543 331.158 417.945 331.775C415.346 332.378 412.682 333.783 410.294 335.764C405.504 339.78 402.892 345.003 401.12 348.652C400.241 350.502 399.572 352.037 399.099 353.087C398.627 354.137 398.351 354.715 398.299 354.688C398.26 354.675 398.456 354.058 398.85 352.982C399.257 351.906 399.847 350.345 400.674 348.455C401.514 346.565 402.577 344.334 404.034 342.011C405.491 339.688 407.393 337.287 409.848 335.239C412.302 333.205 415.071 331.762 417.787 331.158C420.504 330.554 423.063 330.725 425.084 331.25C427.105 331.801 428.601 332.667 429.507 333.389C429.966 333.756 430.294 334.058 430.504 334.281C430.714 334.504 430.819 334.623 430.793 334.649H430.806Z" fill="#263238"></path><path d="M338.193 349.505C338.193 349.505 338.049 349.728 337.734 350.121C337.367 350.568 336.907 351.119 336.33 351.801C335.123 353.258 333.39 355.384 331.422 358.14C327.511 363.599 322.59 371.775 320.267 381.828C317.983 391.894 317.878 401.316 317.485 408.075C317.327 411.461 317.156 414.203 317.012 416.093C316.933 416.972 316.868 417.694 316.815 418.272C316.763 418.77 316.723 419.033 316.697 419.033C316.671 419.033 316.671 418.77 316.671 418.272C316.684 417.694 316.71 416.972 316.737 416.093C316.802 414.112 316.881 411.382 316.986 408.075C317.248 401.329 317.275 391.867 319.584 381.697C321.947 371.5 326.999 363.297 331.015 357.877C333.049 355.148 334.834 353.061 336.107 351.657C336.737 350.948 337.262 350.423 337.603 350.069C337.957 349.715 338.141 349.531 338.167 349.544L338.193 349.505Z" fill="#263238"></path><path d="M442.958 349.36C441.16 337.549 434.638 334.714 427.893 331.04C425.688 329.833 415.045 327.103 406.606 325.042C405.806 319.924 404.362 310.777 404.034 308.848C403.588 306.132 361.041 312.916 360.503 313.94C360.149 314.609 359.165 325.213 358.548 332.287L348.364 335.843L335.07 352.746L328.154 362.576C324.138 368.271 321.094 374.636 319.584 381.434C317.905 388.954 317.681 396.303 317.681 404.295L315.621 447.642L404.638 472.813L411.528 428.915L434.494 397.655C436.449 385.017 445.163 363.888 442.958 349.373V349.36Z" fill="#2197D4"></path><path d="M366.986 333.651C366.894 333.651 366.671 332.51 366.396 330.646C366.12 328.783 365.779 326.197 365.451 323.336C365.293 321.919 365.149 320.567 365.005 319.294C364.886 318.061 364.729 316.932 364.768 315.961C364.795 314.99 365.07 314.189 365.398 313.743C365.739 313.297 366.041 313.179 366.054 313.205C366.094 313.244 365.858 313.441 365.621 313.887C365.385 314.334 365.215 315.056 365.241 315.974C365.267 316.88 365.464 317.995 365.621 319.242C365.779 320.515 365.936 321.853 366.12 323.271C366.448 326.132 366.711 328.73 366.868 330.607C367.026 332.483 367.078 333.665 366.986 333.665V333.651Z" fill="#263238"></path><path d="M378.338 330.961C378.259 330.987 377.853 329.951 377.393 328.205C376.934 326.473 376.448 324.019 376.199 321.289C375.95 318.546 375.976 316.053 376.107 314.268C376.238 312.47 376.448 311.381 376.54 311.394C376.75 311.407 376.37 315.83 376.881 321.237C377.367 326.644 378.548 330.909 378.351 330.974L378.338 330.961Z" fill="#263238"></path><path d="M399.454 327.903C399.231 327.877 400.176 323.468 399.218 318.113C398.325 312.746 395.95 308.914 396.147 308.809C396.212 308.769 396.895 309.662 397.708 311.276C398.522 312.89 399.415 315.252 399.887 317.995C400.359 320.725 400.32 323.258 400.097 325.056C399.874 326.854 399.533 327.93 399.454 327.903Z" fill="#263238"></path><path d="M339.007 366.5C338.85 366.395 340.333 363.862 342.498 360.988C344.663 358.101 346.684 355.975 346.816 356.093C346.96 356.224 345.188 358.52 343.049 361.395C340.897 364.255 339.178 366.605 339.02 366.5H339.007Z" fill="#FAFAFA"></path><path d="M359.06 350.187C358.915 350.305 357.327 348.481 355.516 346.119C353.705 343.757 352.367 341.749 352.524 341.631C352.669 341.512 354.257 343.337 356.068 345.699C357.866 348.061 359.217 350.069 359.06 350.187Z" fill="#FAFAFA"></path><path d="M380.018 339.951C380.136 340.095 378.181 341.893 375.832 344.19C373.483 346.473 371.632 348.389 371.488 348.271C371.343 348.153 372.984 346.014 375.359 343.704C377.722 341.394 379.913 339.819 380.018 339.964V339.951Z" fill="#FAFAFA"></path><path d="M374.126 327.457C373.994 327.602 372.538 326.473 370.858 324.951C369.178 323.428 367.918 322.077 368.049 321.945C368.181 321.801 369.637 322.93 371.317 324.452C372.997 325.974 374.257 327.326 374.126 327.457Z" fill="#FAFAFA"></path><path d="M392.485 317.667C392.525 317.851 390.543 318.428 388.063 318.966C385.582 319.491 383.548 319.78 383.496 319.596C383.456 319.412 385.438 318.835 387.918 318.297C390.399 317.772 392.433 317.483 392.472 317.667H392.485Z" fill="#FAFAFA"></path><path d="M396.16 346.722C395.976 346.722 395.713 344.688 395.582 342.142C395.451 339.61 395.503 337.536 395.687 337.536C395.871 337.536 396.133 339.57 396.265 342.116C396.396 344.649 396.343 346.722 396.16 346.722Z" fill="#FAFAFA"></path><path d="M389.467 360.712C389.283 360.778 388.259 358.402 387.17 355.41C386.081 352.418 385.333 349.938 385.517 349.872C385.687 349.806 386.724 352.182 387.813 355.174C388.902 358.166 389.65 360.646 389.467 360.712Z" fill="#FAFAFA"></path><path d="M371.278 370.555C371.107 370.62 369.965 368.14 368.758 365.003C367.537 361.867 366.698 359.268 366.868 359.203C367.039 359.137 368.181 361.618 369.388 364.754C370.608 367.891 371.448 370.489 371.278 370.555Z" fill="#FAFAFA"></path><path d="M354.164 381.736C353.981 381.775 353.325 379.308 352.695 376.237C352.065 373.166 351.71 370.633 351.894 370.594C352.078 370.555 352.734 373.022 353.364 376.093C353.994 379.164 354.348 381.697 354.164 381.723V381.736Z" fill="#FAFAFA"></path><path d="M333.836 382.182C333.666 382.261 332.432 380.082 331.093 377.313C329.742 374.544 328.784 372.234 328.954 372.156C329.125 372.077 330.358 374.256 331.697 377.025C333.049 379.794 334.007 382.103 333.836 382.182Z" fill="#FAFAFA"></path><path d="M333.39 395.214C333.469 395.384 331.094 396.736 328.062 398.232C325.031 399.728 322.511 400.804 322.432 400.634C322.353 400.463 324.729 399.111 327.76 397.615C330.792 396.119 333.311 395.043 333.39 395.214Z" fill="#FAFAFA"></path><path d="M333.639 415.844C333.469 415.909 332.511 413.81 331.789 411.067C331.054 408.324 330.831 406.027 331.015 406.001C331.212 405.975 331.723 408.193 332.445 410.896C333.167 413.6 333.823 415.778 333.639 415.844Z" fill="#FAFAFA"></path><path d="M329.44 430.332C329.308 430.477 327.392 428.928 325.161 426.881C322.917 424.833 321.211 423.062 321.343 422.917C321.474 422.773 323.39 424.322 325.621 426.382C327.865 428.429 329.571 430.201 329.44 430.345V430.332Z" fill="#FAFAFA"></path><path d="M356.238 420.45C356.29 420.647 353.272 421.513 349.755 423.062C346.225 424.597 343.548 426.224 343.443 426.054C343.338 425.91 345.884 423.994 349.479 422.432C353.062 420.857 356.199 420.28 356.238 420.45Z" fill="#FAFAFA"></path><path d="M348.403 413.259C348.22 413.324 347.367 411.303 346.474 408.77C345.582 406.224 345.017 404.111 345.188 404.046C345.359 403.98 346.225 406.001 347.117 408.534C348.01 411.08 348.574 413.193 348.403 413.259Z" fill="#FAFAFA"></path><path d="M364.296 395.516C364.453 395.621 362.852 398.455 360.7 401.854C358.561 405.253 356.684 407.93 356.527 407.825C356.369 407.72 357.97 404.886 360.123 401.487C362.262 398.088 364.138 395.411 364.296 395.516Z" fill="#FAFAFA"></path><path d="M381.369 397.222C381.225 397.327 379.112 394.768 377.012 391.264C374.9 387.76 373.64 384.689 373.81 384.61C373.994 384.531 375.516 387.445 377.603 390.909C379.677 394.387 381.54 397.104 381.383 397.222H381.369Z" fill="#FAFAFA"></path><path d="M391.606 380.371C391.645 380.555 389.427 381.119 386.606 381.263C383.797 381.408 381.527 381.053 381.54 380.87C381.553 380.673 383.81 380.712 386.566 380.581C389.322 380.45 391.566 380.187 391.593 380.371H391.606Z" fill="#FAFAFA"></path><path d="M415.884 361.171C415.963 361.342 413.089 362.877 409.454 364.61C405.818 366.342 402.813 367.602 402.721 367.431C402.643 367.261 405.517 365.725 409.152 363.993C412.787 362.261 415.792 361.001 415.884 361.171Z" fill="#FAFAFA"></path><path d="M417.498 348.953C417.328 348.875 418.365 346.447 419.795 343.547C421.239 340.646 422.538 338.35 422.708 338.442C422.879 338.52 421.842 340.948 420.412 343.848C418.968 346.749 417.669 349.032 417.498 348.953Z" fill="#FAFAFA"></path><path d="M432.945 358.534C432.761 358.573 431.987 355.87 430.95 352.562C429.913 349.255 429.008 346.591 429.191 346.526C429.362 346.46 430.569 349.032 431.606 352.366C432.656 355.699 433.128 358.507 432.945 358.534Z" fill="#FAFAFA"></path><path d="M435.36 371.237C435.425 371.408 432.892 372.51 429.598 373.337C426.304 374.19 423.562 374.439 423.535 374.256C423.509 374.059 426.173 373.507 429.428 372.668C432.682 371.841 435.294 371.04 435.36 371.224V371.237Z" fill="#FAFAFA"></path><path d="M408.916 386.762C408.719 386.723 409.283 383.534 409.441 379.557C409.624 375.581 409.336 372.353 409.532 372.326C409.703 372.3 410.307 375.542 410.123 379.584C409.966 383.626 409.086 386.815 408.916 386.762Z" fill="#FAFAFA"></path><path d="M403.64 402.72C403.522 402.852 401.212 400.896 398.837 398.022C396.462 395.161 394.952 392.537 395.11 392.432C395.28 392.327 397.013 394.754 399.362 397.576C401.698 400.411 403.771 402.563 403.64 402.707V402.72Z" fill="#FAFAFA"></path><path d="M430.162 399.361C430.241 399.531 427.787 400.726 424.69 402.012C421.593 403.311 419.021 404.216 418.955 404.033C418.876 403.862 421.33 402.668 424.427 401.382C427.525 400.096 430.097 399.177 430.162 399.361Z" fill="#FAFAFA"></path><path d="M420.661 429.4C420.478 429.4 420.347 426.159 420.386 422.183C420.425 418.193 420.609 414.965 420.806 414.965C420.99 414.965 421.121 418.193 421.081 422.183C421.042 426.172 420.858 429.4 420.661 429.4Z" fill="#FAFAFA"></path><path d="M400.294 427.681C400.11 427.655 400.438 424.295 401.462 420.266C402.472 416.224 403.771 413.114 403.929 413.18C404.112 413.245 403.115 416.434 402.118 420.437C401.107 424.427 400.49 427.721 400.294 427.694V427.681Z" fill="#FAFAFA"></path><path d="M401.238 435.568C401.238 435.765 397.971 436.08 393.994 436.75C390.005 437.406 386.803 438.154 386.75 437.97C386.698 437.799 389.847 436.736 393.876 436.08C397.905 435.411 401.225 435.398 401.238 435.582V435.568Z" fill="#FAFAFA"></path><path d="M378.719 430.503C378.587 430.372 380.32 428.351 382.603 425.988C384.887 423.626 386.855 421.815 386.986 421.946C387.118 422.078 385.385 424.099 383.089 426.461C380.805 428.823 378.837 430.634 378.706 430.503H378.719Z" fill="#FAFAFA"></path><path d="M364.125 444.702C363.928 444.742 363.351 442.38 362.354 439.571C361.369 436.75 360.346 434.545 360.516 434.453C360.674 434.361 361.986 436.461 362.997 439.335C364.007 442.209 364.296 444.663 364.125 444.702Z" fill="#FAFAFA"></path><path d="M387.669 452.813C387.59 452.983 384.651 451.842 381.081 450.267C377.525 448.692 374.703 447.261 374.769 447.091C374.847 446.92 377.787 448.062 381.357 449.637C384.913 451.212 387.735 452.642 387.656 452.813H387.669Z" fill="#FAFAFA"></path><path d="M346.632 450.424C346.448 450.359 346.999 448.219 347.865 445.621C348.731 443.023 349.571 440.975 349.742 441.041C349.925 441.107 349.374 443.246 348.508 445.844C347.642 448.429 346.802 450.49 346.632 450.424Z" fill="#FAFAFA"></path><path d="M373.666 455.004C373.627 455.201 369.9 454.598 365.254 454.361C360.608 454.099 356.842 454.309 356.829 454.112C356.803 453.941 360.595 453.43 365.293 453.679C369.992 453.915 373.706 454.834 373.666 455.004Z" fill="#FAFAFA"></path><path d="M379.296 416.303C379.296 416.303 379.257 416.133 379.257 415.791C379.257 415.45 379.283 414.938 379.467 414.308C379.637 413.678 380.044 412.878 380.897 412.353C381.724 411.815 382.879 411.631 384.099 411.828L383.837 411.986C385.281 406.959 387.564 399.597 389.861 391.355C392.013 383.639 393.456 376.539 394.48 371.381C394.966 368.888 395.373 366.828 395.687 365.279C395.976 363.835 396.16 363.048 396.212 363.048C396.265 363.048 396.16 363.862 395.95 365.318C395.74 366.775 395.412 368.875 394.966 371.46C394.073 376.631 392.682 383.783 390.53 391.526C388.233 399.794 385.845 407.117 384.283 412.104L384.218 412.301L384.008 412.261C382.918 412.064 381.829 412.196 381.094 412.655C380.32 413.088 379.913 413.797 379.716 414.374C379.322 415.568 379.388 416.316 379.309 416.303H379.296Z" fill="#263238"></path><path d="M408.719 434.558C408.601 434.61 407.8 432.839 406.134 430.188C404.467 427.537 401.842 424.072 398.312 420.857C394.769 417.655 391.081 415.358 388.286 413.954C385.49 412.55 383.64 411.907 383.679 411.789C383.692 411.749 384.165 411.867 385.005 412.143C385.858 412.392 387.052 412.865 388.483 413.521C391.357 414.82 395.162 417.091 398.758 420.345C402.341 423.613 404.966 427.183 406.527 429.925C407.315 431.29 407.892 432.445 408.233 433.259C408.575 434.072 408.745 434.532 408.706 434.545L408.719 434.558Z" fill="#263238"></path><g opacity="0.2"><path d="M384.414 410.831C389.428 411.185 393.548 411.566 398.26 413.337C402.971 415.109 407.328 418.482 409.06 423.206C409.48 424.335 409.677 425.765 408.811 426.618C408.181 427.235 407.157 427.314 406.331 427.025C405.504 426.736 404.808 426.133 404.152 425.529C401.265 422.852 398.26 420.49 395.267 417.917C392.275 415.345 387.945 412.642 384.047 412.051" fill="black"></path></g><path d="M374.952 402.458C374.952 402.458 374.493 402.799 373.587 403.245C372.682 403.705 371.304 404.269 369.545 404.768C366.055 405.791 360.845 406.342 355.398 404.925C349.952 403.508 345.661 400.489 343.115 397.904C341.829 396.605 340.897 395.45 340.333 394.61C339.755 393.77 339.493 393.271 339.519 393.258C339.624 393.18 340.818 395.109 343.456 397.563C346.054 400.017 350.267 402.891 355.569 404.269C360.871 405.647 365.963 405.188 369.414 404.308C372.905 403.442 374.887 402.34 374.939 402.458H374.952Z" fill="#263238"></path><g opacity="0.2"><path d="M340.241 394.282C342.445 399.085 345.044 403.928 349.23 407.143C351.645 409.007 354.467 410.568 357.524 410.621C361.908 410.699 365.661 407.707 369.007 404.873C358.181 406.566 345.976 401.657 340.241 394.282Z" fill="black"></path></g><path d="M388.758 329.964C388.548 329.964 388.798 325.462 388.26 319.964C387.748 314.465 386.645 310.095 386.855 310.042C386.934 310.016 387.328 311.079 387.761 312.864C388.207 314.636 388.68 317.129 388.942 319.898C389.204 322.68 389.218 325.213 389.113 327.037C389.021 328.861 388.837 329.977 388.758 329.977V329.964Z" fill="#263238"></path><path d="M233.087 505.582C233.087 505.582 218.822 508.666 206.092 506.75C194.15 504.965 167.418 506.816 167.431 522.551C167.431 540.097 203.087 535.766 216.998 532.984C230.909 530.202 244.754 527.682 244.754 527.682L233.087 505.582Z" fill="#2197D4"></path><path d="M201.079 528.076C200.895 528.115 200.121 525.386 199.36 521.973C198.599 518.561 198.113 515.753 198.31 515.714C198.494 515.674 199.268 518.404 200.029 521.816C200.79 525.228 201.263 528.037 201.079 528.076Z" fill="#263238"></path><path d="M205.948 528.299C205.764 528.325 205.226 525.517 204.741 522.039C204.268 518.548 204.032 515.714 204.216 515.687C204.399 515.661 204.937 518.469 205.423 521.947C205.895 525.425 206.132 528.273 205.948 528.299Z" fill="#263238"></path><path d="M210.646 526.462C210.463 526.488 210.003 524.034 209.636 520.989C209.268 517.945 209.124 515.464 209.308 515.438C209.491 515.412 209.951 517.866 210.318 520.91C210.686 523.955 210.83 526.435 210.646 526.462Z" fill="#263238"></path><path d="M218.022 524.624C217.851 524.69 216.841 522.656 216.184 519.926C215.515 517.21 215.476 514.926 215.659 514.913C215.856 514.9 216.198 517.105 216.854 519.769C217.497 522.433 218.205 524.559 218.022 524.624Z" fill="#263238"></path><path d="M219.597 518.207C219.597 518.207 220.253 518.063 221.46 518.089C222.654 518.128 224.426 518.312 226.473 519.073C226.985 519.27 227.523 519.519 228.022 519.9C228.507 520.281 228.967 520.884 228.993 521.645C229.006 523.194 227.3 524.323 225.765 523.994C224.203 523.693 223.022 522.551 222.038 521.344C221.04 520.097 220.332 518.588 219.925 516.96C219.137 513.693 219.728 510.307 221.5 507.879C221.762 507.59 222.116 507.315 222.563 507.236C222.996 507.157 223.468 507.328 223.744 507.603C224.334 508.154 224.531 508.863 224.636 509.519C224.807 510.805 224.715 512.026 224.452 513.089C223.941 515.228 222.864 516.711 222.051 517.59C221.631 518.023 221.263 518.325 221.014 518.509C220.752 518.693 220.607 518.771 220.594 518.758C220.555 518.706 221.093 518.312 221.854 517.406C222.589 516.501 223.56 515.031 223.993 512.971C224.216 511.947 224.269 510.792 224.098 509.585C224.006 509.021 223.783 508.404 223.363 508.036C222.956 507.669 222.379 507.774 221.985 508.273C220.45 510.438 219.846 513.719 220.607 516.79C220.988 518.325 221.657 519.756 222.576 520.924C223.481 522.078 224.61 523.128 225.883 523.365C227.103 523.666 228.455 522.708 228.429 521.645C228.429 521.12 228.114 520.635 227.694 520.307C227.274 519.966 226.788 519.716 226.316 519.519C224.36 518.732 222.641 518.47 221.46 518.351C220.279 518.246 219.61 518.26 219.61 518.207H219.597Z" fill="#263238"></path><path d="M243.337 525.359C243.337 525.359 243.219 525.412 242.983 525.477C242.707 525.543 242.353 525.635 241.906 525.74C240.909 525.963 239.531 526.278 237.773 526.685C234.177 527.472 228.954 528.588 222.471 529.834C215.988 531.081 208.245 532.499 199.557 533.68C195.226 534.257 190.594 534.782 185.79 534.362C183.389 534.191 180.961 533.771 178.586 532.984C177.405 532.564 176.223 532.105 175.121 531.449C174.019 530.792 172.956 530.084 172.076 528.995L172.129 529.047C171.683 528.627 171.223 528.128 170.882 527.564C169.425 525.228 169.373 522.341 170.16 519.887C170.961 517.38 172.746 515.372 174.727 513.916C176.735 512.446 178.979 511.422 181.223 510.7C182.365 510.372 183.468 509.992 184.596 509.729C185.725 509.506 186.84 509.204 187.956 509.047C196.893 507.63 205.029 508.351 211.775 508.351C215.161 508.417 218.219 508.325 220.896 508.154C223.573 507.958 225.87 507.643 227.72 507.288C228.639 507.091 229.465 506.921 230.174 506.776C230.856 506.58 231.447 506.409 231.946 506.278C232.392 506.16 232.759 506.055 233.035 505.976C233.284 505.91 233.416 505.884 233.416 505.897C233.416 505.897 233.297 505.963 233.061 506.042C232.786 506.133 232.431 506.252 231.985 506.409C231.5 506.567 230.909 506.763 230.227 506.973C229.505 507.144 228.691 507.341 227.772 507.551C225.909 507.944 223.612 508.299 220.922 508.535C218.232 508.732 215.161 508.863 211.762 508.837C204.99 508.889 196.867 508.233 188.048 509.664C186.945 509.821 185.856 510.123 184.741 510.346C183.625 510.595 182.549 510.989 181.42 511.304C179.216 512.026 177.037 513.036 175.108 514.441C173.205 515.858 171.525 517.761 170.79 520.084C170.055 522.38 170.121 525.084 171.446 527.197C171.748 527.722 172.168 528.155 172.562 528.535L172.588 528.561L172.614 528.601C173.336 529.493 174.386 530.241 175.436 530.845C176.486 531.475 177.628 531.921 178.769 532.328C181.079 533.102 183.468 533.509 185.817 533.68C190.541 534.1 195.121 533.601 199.452 533.037C208.113 531.895 215.869 530.517 222.352 529.336C228.849 528.142 234.072 527.105 237.681 526.396C239.452 526.042 240.843 525.779 241.841 525.582C242.287 525.504 242.641 525.438 242.93 525.386C243.179 525.346 243.298 525.333 243.298 525.333L243.337 525.359Z" fill="#263238"></path><path d="M191.184 533.811C191.079 533.811 191 532.42 190.843 530.163C190.685 527.918 190.41 524.808 189.964 521.409C189.504 517.997 188.953 514.939 188.507 512.721C188.074 510.504 187.785 509.139 187.877 509.112C187.956 509.086 188.415 510.412 188.979 512.616C189.544 514.808 190.174 517.879 190.633 521.317C191.092 524.742 191.289 527.879 191.328 530.149C191.368 532.42 191.276 533.811 191.197 533.811H191.184Z" fill="#263238"></path><path opacity="0.4" d="M228.704 506.343L237.733 528.981L244.754 527.682L231.316 505.582L228.704 506.343Z" fill="black"></path><path d="M346.501 444.296C345.044 444.781 251.644 418.6 213.862 407.983C203.94 405.188 193.297 406.802 184.649 412.405L184.189 412.694C171.486 420.91 165.305 436.211 168.743 450.949C170.921 460.306 176.748 468.39 184.937 473.417C209.846 488.679 262.563 520.779 264.177 520.162C266.29 519.349 332.13 517.643 332.13 517.643L252.93 460.687L290.608 485.044L346.501 444.322V444.296Z" fill="#263238"></path><path d="M268.508 415.87L288.364 405.594L307.839 417.799L380.74 420.175L391.291 455.66L285.778 431.198C285.778 431.198 266.579 432.891 265.135 428.587C263.692 424.269 268.508 415.857 268.508 415.857V415.87Z" fill="#FFBE9D"></path><path d="M328.233 472.747L318.417 504.979L319.637 514.795C337.511 532.813 366.015 534.743 386.147 519.283C398.391 509.887 405.53 495.307 405.465 479.873L405.32 446.198L328.233 472.76V472.747Z" fill="#263238"></path><path d="M269.794 472.957C269.676 473.115 258.285 464.808 244.347 454.414C230.41 444.02 219.203 435.463 219.308 435.319C219.426 435.162 230.817 443.469 244.754 453.876C258.691 464.27 269.899 472.826 269.794 472.97V472.957Z" fill="#455A64"></path><path d="M287.025 412.038C287.077 412.222 282.733 413.77 277.313 415.503C271.893 417.235 267.445 418.508 267.392 418.324C267.34 418.14 271.683 416.592 277.103 414.86C282.523 413.127 286.972 411.854 287.025 412.038Z" fill="#EB996E"></path><path d="M288.508 418.088C288.508 418.193 287.222 418.377 285.122 418.718C283.035 419.059 280.148 419.571 277.012 420.293C273.862 421.015 271.054 421.815 269.019 422.419C266.985 423.022 265.739 423.416 265.699 423.324C265.673 423.246 266.867 422.681 268.862 421.959C270.857 421.238 273.678 420.358 276.854 419.623C280.03 418.902 282.943 418.455 285.056 418.232C287.169 418.009 288.495 417.983 288.508 418.075V418.088Z" fill="#EB996E"></path><path d="M286.854 423.639C286.894 423.823 281.999 424.952 275.909 426.159C269.833 427.366 264.873 428.193 264.833 428.009C264.794 427.826 269.689 426.697 275.778 425.49C281.854 424.282 286.815 423.455 286.854 423.639Z" fill="#EB996E"></path><path d="M261.093 368.258L279.413 428.521C279.623 429.217 280.24 429.702 280.949 429.755L330.857 433.495C331.763 433.561 332.471 434.322 332.471 435.24V438.351C332.471 439.322 331.671 440.109 330.687 440.096L194.255 437.537C193.546 437.524 192.916 437.078 192.654 436.408L168.664 373.547C168.244 372.431 169.032 371.237 170.213 371.185L259.334 367.011C260.135 366.972 260.857 367.484 261.08 368.245L261.093 368.258Z" fill="#455A64"></path><path d="M222.641 394.229C221.67 394.479 220.134 395.857 219.938 397.3C219.754 398.744 220.528 400.201 221.696 401.054C223.14 402.09 225.213 402.222 226.683 401.237C228.153 400.253 228.809 398.298 228.048 396.198C227.444 394.531 224.4 393.376 222.641 394.229Z" fill="#E0E0E0"></path><path d="M244.754 527.682L230.332 503.955L336.369 420.844C342.97 415.437 351.028 412.13 359.532 411.356C385.91 408.954 408.063 430.949 405.858 457.34L404.165 477.616L333.784 500.241L244.754 527.682Z" fill="#263238"></path><path d="M380.74 471.356C380.74 471.356 380.648 471.448 380.464 471.619C380.241 471.802 379.953 472.039 379.598 472.327C378.785 472.97 377.656 473.876 376.225 475.018C375.491 475.608 374.664 476.251 373.771 476.96C372.879 477.669 371.816 478.325 370.727 479.099C369.624 479.86 368.443 480.661 367.21 481.514C366.58 481.934 365.95 482.393 365.28 482.826C364.598 483.233 363.889 483.666 363.181 484.099C360.294 485.818 357.183 487.787 353.666 489.572C351.921 490.49 350.136 491.488 348.246 492.419C346.343 493.325 344.388 494.244 342.38 495.202C334.309 498.876 325.267 502.577 315.569 505.884C296.198 512.564 278.298 517.367 265.463 521.252C262.248 522.197 259.348 523.089 256.815 523.89C254.269 524.677 252.077 525.346 250.306 525.95C248.56 526.514 247.182 526.96 246.198 527.288C245.752 527.42 245.397 527.538 245.122 527.617C244.873 527.682 244.754 527.722 244.754 527.708C244.754 527.708 244.873 527.643 245.109 527.551C245.384 527.446 245.726 527.315 246.159 527.157C247.13 526.803 248.495 526.317 250.227 525.701C251.985 525.057 254.164 524.349 256.71 523.522C259.243 522.682 262.13 521.763 265.332 520.792C278.127 516.79 296.015 511.908 315.346 505.241C325.018 501.947 334.047 498.272 342.118 494.637C344.125 493.692 346.081 492.787 347.971 491.894C349.86 490.976 351.632 489.992 353.391 489.086C356.921 487.327 360.031 485.385 362.918 483.705C363.64 483.285 364.349 482.865 365.031 482.459C365.7 482.039 366.343 481.592 366.973 481.173C368.22 480.333 369.414 479.545 370.517 478.81C371.619 478.062 372.682 477.419 373.575 476.724C374.48 476.041 375.307 475.411 376.055 474.834C377.525 473.732 378.68 472.865 379.506 472.249C379.874 471.973 380.176 471.763 380.412 471.592C380.622 471.448 380.727 471.382 380.74 471.382V471.356Z" fill="#455A64"></path><path d="M383.312 482.459C383.312 482.459 382.945 482.695 382.236 483.023C381.527 483.351 380.491 483.771 379.191 484.257C376.593 485.228 372.931 486.369 368.798 487.262C364.651 488.154 360.845 488.614 358.076 488.797C356.698 488.889 355.569 488.929 354.795 488.929C354.02 488.929 353.587 488.902 353.587 488.863C353.587 488.758 355.293 488.627 358.023 488.325C360.766 488.023 364.532 487.485 368.64 486.606C372.748 485.726 376.396 484.65 379.021 483.81C381.645 482.97 383.246 482.38 383.286 482.485L383.312 482.459Z" fill="#455A64"></path><path d="M332.13 424.847C332.248 424.991 309.545 442.826 281.447 464.676C253.337 486.527 230.45 504.112 230.332 503.968C230.213 503.824 252.904 485.989 281.028 464.138C309.138 442.288 332.012 424.702 332.13 424.847Z" fill="#455A64"></path><path d="M326.002 513.036C320.91 510.32 315.201 511.921 310.332 513.561C307.091 514.651 303.731 516.383 300.437 515.451C298.062 514.782 296.29 512.853 294.466 511.173C287.143 504.414 277.025 500.727 267.051 501.356C264.216 501.54 261.447 502.669 259.518 504.755C254.518 510.162 258.285 517.21 262.76 521.763C270.647 529.795 281.369 534.979 292.563 536.147C301.868 537.118 314.663 535.832 324.099 531.79C329.913 529.296 332.905 522.433 329.847 516.895C328.955 515.28 327.655 513.916 325.989 513.023L326.002 513.036Z" fill="#2197D4"></path><g opacity="0.4"><path d="M325.989 517.367C320.897 514.651 315.188 516.252 310.319 517.892C307.078 518.981 303.718 520.714 300.424 519.782C298.049 519.113 296.277 517.183 294.453 515.504C287.13 508.745 277.012 505.057 267.038 505.687C264.203 505.871 261.434 507 259.505 509.086C258.403 510.28 257.746 511.567 257.405 512.879C258.14 516.134 260.332 519.309 262.733 521.763C270.621 529.795 281.343 534.979 292.537 536.147C301.841 537.118 314.637 535.832 324.073 531.79C327.563 530.294 330.031 527.21 330.779 523.798C330.582 522.931 330.28 522.065 329.821 521.225C328.928 519.611 327.629 518.246 325.962 517.354L325.989 517.367Z" fill="black"></path></g><path d="M330.818 523.798C330.726 523.824 330.752 522.551 329.571 520.779C328.981 519.913 328.101 518.942 326.855 518.115C325.621 517.288 324.033 516.567 322.183 516.33C318.403 515.884 314.033 517.472 309.164 518.798C306.763 519.428 304.138 520.412 301.264 520.044C299.86 519.861 298.455 519.401 297.196 518.64C295.949 517.892 294.807 516.96 293.705 516.015C289.518 511.921 284.545 509.362 279.794 507.748C277.418 506.947 275.083 506.422 272.878 506.147C270.66 505.858 268.586 505.818 266.723 506.107C264.859 506.396 263.245 507.013 261.959 507.774C260.686 508.548 259.728 509.441 259.046 510.241C257.694 511.881 257.235 512.997 257.169 512.958C257.169 512.958 257.523 511.803 258.836 510.084C259.505 509.244 260.45 508.286 261.762 507.459C263.075 506.645 264.728 505.976 266.644 505.648C268.56 505.32 270.699 505.333 272.943 505.595C275.201 505.858 277.576 506.37 279.991 507.17C282.419 507.958 284.873 509.034 287.287 510.399C288.482 511.094 289.702 511.816 290.844 512.708C291.972 513.601 293.049 514.572 294.151 515.517C295.253 516.462 296.356 517.367 297.55 518.076C298.731 518.798 300.03 519.231 301.356 519.401C304.02 519.756 306.566 518.837 309.007 518.207C313.849 516.934 318.298 515.359 322.248 515.871C326.172 516.501 328.692 518.85 329.807 520.661C330.385 521.58 330.634 522.407 330.752 522.958C330.844 523.522 330.857 523.824 330.831 523.824L330.818 523.798Z" fill="#263238"></path><path d="M330.818 523.798C330.726 523.824 330.752 522.551 329.571 520.779C328.981 519.913 328.101 518.942 326.855 518.115C325.621 517.288 324.033 516.567 322.183 516.33C318.403 515.884 314.033 517.472 309.164 518.798C306.763 519.428 304.138 520.412 301.264 520.044C299.86 519.861 298.455 519.401 297.196 518.64C295.949 517.892 294.807 516.96 293.705 516.015C289.518 511.921 284.545 509.362 279.794 507.748C277.418 506.947 275.083 506.422 272.878 506.147C270.66 505.858 268.586 505.818 266.723 506.107C264.859 506.396 263.245 507.013 261.959 507.774C260.686 508.548 259.728 509.441 259.046 510.241C257.694 511.881 257.235 512.997 257.169 512.958C257.169 512.958 257.523 511.803 258.836 510.084C259.505 509.244 260.45 508.286 261.762 507.459C263.075 506.645 264.728 505.976 266.644 505.648C268.56 505.32 270.699 505.333 272.943 505.595C275.201 505.858 277.576 506.37 279.991 507.17C282.419 507.958 284.873 509.034 287.287 510.399C288.482 511.094 289.702 511.816 290.844 512.708C291.972 513.601 293.049 514.572 294.151 515.517C295.253 516.462 296.356 517.367 297.55 518.076C298.731 518.798 300.03 519.231 301.356 519.401C304.02 519.756 306.566 518.837 309.007 518.207C313.849 516.934 318.298 515.359 322.248 515.871C326.172 516.501 328.692 518.85 329.807 520.661C330.385 521.58 330.634 522.407 330.752 522.958C330.844 523.522 330.857 523.824 330.831 523.824L330.818 523.798Z" fill="#263238"></path><path d="M267.734 522.577C267.681 522.498 268.666 521.79 270.332 520.766C271.999 519.742 274.374 518.443 277.065 517.17C279.768 515.897 282.288 514.913 284.138 514.27C285.989 513.627 287.157 513.325 287.183 513.417C287.209 513.509 286.107 513.968 284.309 514.729C282.511 515.477 280.044 516.527 277.353 517.787C274.676 519.047 272.288 520.281 270.555 521.186C268.836 522.092 267.76 522.656 267.708 522.564L267.734 522.577Z" fill="#263238"></path><path d="M269.479 527.656C269.4 527.485 273.849 525.162 279.414 522.472C284.978 519.782 289.558 517.735 289.65 517.905C289.729 518.076 285.28 520.399 279.715 523.089C274.151 525.779 269.571 527.827 269.479 527.656Z" fill="#263238"></path><path d="M290.542 529.874C290.437 530.031 285.017 526.803 278.443 522.656C271.855 518.509 266.605 515.018 266.697 514.861C266.802 514.703 272.222 517.931 278.797 522.078C285.385 526.225 290.634 529.716 290.542 529.874Z" fill="#263238"></path><path d="M293.6 524.585C293.534 524.664 292.537 523.955 290.949 522.813C289.348 521.659 287.156 520.071 284.689 518.365C282.222 516.658 279.965 515.149 278.324 514.06C276.684 512.971 275.686 512.275 275.739 512.196C275.791 512.118 276.881 512.656 278.587 513.653C280.293 514.637 282.602 516.081 285.083 517.8C287.55 519.519 289.715 521.173 291.238 522.42C292.76 523.666 293.652 524.506 293.6 524.572V524.585Z" fill="#263238"></path></g><defs><clipPath id="clip0_47_2414"><rect width="552" height="536.462" fill="white" transform="translate(0.5)"></rect></clipPath></defs></svg>